<?xml version="1.0" encoding="UTF-8" standalone="no"?>
<!-- Generator: Adobe Illustrator 16.0.0, SVG Export Plug-In . SVG Version: 6.00 Build 0)  -->

<svg
   xmlns:dc="http://purl.org/dc/elements/1.1/"
   xmlns:cc="http://creativecommons.org/ns#"
   xmlns:rdf="http://www.w3.org/1999/02/22-rdf-syntax-ns#"
   xmlns:svg="http://www.w3.org/2000/svg"
   xmlns="http://www.w3.org/2000/svg"
   xmlns:sodipodi="http://sodipodi.sourceforge.net/DTD/sodipodi-0.dtd"
   xmlns:inkscape="http://www.inkscape.org/namespaces/inkscape"
   version="1.1"
   id="Capa_1"
   x="0px"
   y="0px"
   width="456.13242"
   height="145.16273"
   viewBox="0 0 456.13243 145.16274"
   xml:space="preserve"
   sodipodi:docname="beebot-pa.svg"
   inkscape:version="0.92.4 (5da689c313, 2019-01-14)"><metadata
   id="metadata44"><rdf:RDF><cc:Work
       rdf:about=""><dc:format>image/svg+xml</dc:format><dc:type
         rdf:resource="http://purl.org/dc/dcmitype/StillImage" /><dc:title /></cc:Work></rdf:RDF></metadata><defs
   id="defs42">
	

		
	
			
		<clipPath
   clipPathUnits="userSpaceOnUse"
   id="clipPath54"><rect
     style="fill:#000080;fill-opacity:1;stroke:#57432f;stroke-opacity:1"
     id="rect56"
     width="143.72603"
     height="159.69559"
     x="151.71082"
     y="41.254696" /></clipPath><clipPath
   clipPathUnits="userSpaceOnUse"
   id="clipPath943"><rect
     style="fill:#008900;fill-opacity:1;stroke:#57432f;stroke-opacity:1"
     id="rect945"
     width="138.32925"
     height="108.21676"
     x="94.925423"
     y="100.5713" /></clipPath></defs><sodipodi:namedview
   pagecolor="#ffffff"
   bordercolor="#666666"
   borderopacity="1"
   objecttolerance="10"
   gridtolerance="10"
   guidetolerance="10"
   inkscape:pageopacity="0"
   inkscape:pageshadow="2"
   inkscape:window-width="1366"
   inkscape:window-height="705"
   id="namedview40"
   showgrid="false"
   fit-margin-top="0"
   fit-margin-left="0"
   fit-margin-right="0"
   fit-margin-bottom="0"
   inkscape:zoom="0.75142965"
   inkscape:cx="89.799943"
   inkscape:cy="38.229295"
   inkscape:window-x="-8"
   inkscape:window-y="-8"
   inkscape:window-maximized="1"
   inkscape:current-layer="Capa_1" />
<rect
   style="fill:#2792c1;fill-opacity:1;stroke:#57432f;stroke-width:0.90693045;stroke-opacity:1"
   id="rect69"
   width="455.22549"
   height="134.60957"
   x="0.45346522"
   y="10.099697"
   ry="19.346209" />
<g
   id="g9"
   transform="translate(31.108322,-31.108464)">
</g>
<g
   id="g11"
   transform="translate(31.108322,-31.108464)">
</g>
<g
   id="g13"
   transform="translate(31.108322,-31.108464)">
</g>
<g
   id="g15"
   transform="translate(31.108322,-31.108464)">
</g>
<g
   id="g17"
   transform="translate(31.108322,-31.108464)">
</g>
<g
   id="g19"
   transform="translate(31.108322,-31.108464)">
</g>
<g
   id="g21"
   transform="translate(31.108322,-31.108464)">
</g>
<g
   id="g23"
   transform="translate(31.108322,-31.108464)">
</g>
<g
   id="g25"
   transform="translate(31.108322,-31.108464)">
</g>
<g
   id="g27"
   transform="translate(31.108322,-31.108464)">
</g>
<g
   id="g29"
   transform="translate(31.108322,-31.108464)">
</g>
<g
   id="g31"
   transform="translate(31.108322,-31.108464)">
</g>
<g
   id="g33"
   transform="translate(31.108322,-31.108464)">
</g>
<g
   id="g35"
   transform="translate(31.108322,-31.108464)">
</g>
<g
   id="g37"
   transform="translate(31.108322,-31.108464)">
</g>
<g
   id="g4"
   transform="matrix(2.1105633,0,0,2.1105633,189.59089,25.978381)"
   style="fill:#ffffff;fill-opacity:1"><path
     inkscape:connector-curvature="0"
     d="M 41.346,0 H 5.388 C 2.417,0 0,2.417 0,5.388 v 35.958 c 0,2.971 2.417,5.388 5.388,5.388 h 35.958 c 2.971,0 5.388,-2.417 5.388,-5.388 V 5.388 C 46.733,2.417 44.316,0 41.346,0 Z"
     id="path2"
     style="fill:#ffffff;fill-opacity:1" /></g><g
   id="g6"
   transform="matrix(2.1105633,0,0,2.1105633,181.59089,25.978381)"
   style="fill:#ffffff;fill-opacity:1" /><g
   id="g8"
   transform="matrix(2.1105633,0,0,2.1105633,181.59089,25.978381)"
   style="fill:#ffffff;fill-opacity:1" /><g
   id="g10"
   transform="matrix(2.1105633,0,0,2.1105633,181.59089,25.978381)"
   style="fill:#ffffff;fill-opacity:1" /><g
   id="g12"
   transform="matrix(2.1105633,0,0,2.1105633,181.59089,25.978381)"
   style="fill:#ffffff;fill-opacity:1" /><g
   id="g14"
   transform="matrix(2.1105633,0,0,2.1105633,181.59089,25.978381)"
   style="fill:#ffffff;fill-opacity:1" /><g
   id="g16"
   transform="matrix(2.1105633,0,0,2.1105633,181.59089,25.978381)"
   style="fill:#ffffff;fill-opacity:1" /><g
   id="g18"
   transform="matrix(2.1105633,0,0,2.1105633,181.59089,25.978381)"
   style="fill:#ffffff;fill-opacity:1" /><g
   id="g20"
   transform="matrix(2.1105633,0,0,2.1105633,181.59089,25.978381)"
   style="fill:#ffffff;fill-opacity:1" /><g
   id="g22"
   transform="matrix(2.1105633,0,0,2.1105633,181.59089,25.978381)"
   style="fill:#ffffff;fill-opacity:1" /><g
   id="g24"
   transform="matrix(2.1105633,0,0,2.1105633,181.59089,25.978381)"
   style="fill:#ffffff;fill-opacity:1" /><g
   id="g26"
   transform="matrix(2.1105633,0,0,2.1105633,181.59089,25.978381)"
   style="fill:#ffffff;fill-opacity:1" /><g
   id="g28"
   transform="matrix(2.1105633,0,0,2.1105633,181.59089,25.978381)"
   style="fill:#ffffff;fill-opacity:1" /><g
   id="g30"
   transform="matrix(2.1105633,0,0,2.1105633,181.59089,25.978381)"
   style="fill:#ffffff;fill-opacity:1" /><g
   id="g32"
   transform="matrix(2.1105633,0,0,2.1105633,181.59089,25.978381)"
   style="fill:#ffffff;fill-opacity:1" /><g
   id="g34"
   transform="matrix(2.1105633,0,0,2.1105633,181.59089,25.978381)"
   style="fill:#ffffff;fill-opacity:1" /></svg>