<?xml version="1.0" encoding="UTF-8" standalone="no"?>
<!-- Generator: Adobe Illustrator 16.0.0, SVG Export Plug-In . SVG Version: 6.00 Build 0)  -->

<svg
   xmlns:dc="http://purl.org/dc/elements/1.1/"
   xmlns:cc="http://creativecommons.org/ns#"
   xmlns:rdf="http://www.w3.org/1999/02/22-rdf-syntax-ns#"
   xmlns:svg="http://www.w3.org/2000/svg"
   xmlns="http://www.w3.org/2000/svg"
   xmlns:sodipodi="http://sodipodi.sourceforge.net/DTD/sodipodi-0.dtd"
   xmlns:inkscape="http://www.inkscape.org/namespaces/inkscape"
   version="1.1"
   id="Capa_1"
   x="0px"
   y="0px"
   width="456.13242"
   height="145.16273"
   viewBox="0 0 456.13243 145.16274"
   xml:space="preserve"
   sodipodi:docname="beebot-pa.svg"
   inkscape:version="0.92.4 (5da689c313, 2019-01-14)"><metadata
   id="metadata44"><rdf:RDF><cc:Work
       rdf:about=""><dc:format>image/svg+xml</dc:format><dc:type
         rdf:resource="http://purl.org/dc/dcmitype/StillImage" /><dc:title /></cc:Work></rdf:RDF></metadata><defs
   id="defs42">
	

		
	
			
		<clipPath
   clipPathUnits="userSpaceOnUse"
   id="clipPath54"><rect
     style="fill:#000080;fill-opacity:1;stroke:#57432f;stroke-opacity:1"
     id="rect56"
     width="143.72603"
     height="159.69559"
     x="151.71082"
     y="41.254696" /></clipPath><clipPath
   clipPathUnits="userSpaceOnUse"
   id="clipPath943"><rect
     style="fill:#008900;fill-opacity:1;stroke:#57432f;stroke-opacity:1"
     id="rect945"
     width="138.32925"
     height="108.21676"
     x="94.925423"
     y="100.5713" /></clipPath></defs><sodipodi:namedview
   pagecolor="#ffffff"
   bordercolor="#666666"
   borderopacity="1"
   objecttolerance="10"
   gridtolerance="10"
   guidetolerance="10"
   inkscape:pageopacity="0"
   inkscape:pageshadow="2"
   inkscape:window-width="1366"
   inkscape:window-height="705"
   id="namedview40"
   showgrid="false"
   fit-margin-top="0"
   fit-margin-left="0"
   fit-margin-right="0"
   fit-margin-bottom="0"
   inkscape:zoom="1.062682"
   inkscape:cx="-7.218633"
   inkscape:cy="24.276024"
   inkscape:window-x="-8"
   inkscape:window-y="-8"
   inkscape:window-maximized="1"
   inkscape:current-layer="Capa_1" />
<rect
   style="fill:#2792c1;fill-opacity:1;stroke:#57432f;stroke-width:0.90693045;stroke-opacity:1"
   id="rect69"
   width="455.22549"
   height="134.60957"
   x="0.45346522"
   y="10.099697"
   ry="19.346209" />
<g
   id="g9"
   transform="translate(31.108322,-31.108464)">
</g>
<g
   id="g11"
   transform="translate(31.108322,-31.108464)">
</g>
<g
   id="g13"
   transform="translate(31.108322,-31.108464)">
</g>
<g
   id="g15"
   transform="translate(31.108322,-31.108464)">
</g>
<g
   id="g17"
   transform="translate(31.108322,-31.108464)">
</g>
<g
   id="g19"
   transform="translate(31.108322,-31.108464)">
</g>
<g
   id="g21"
   transform="translate(31.108322,-31.108464)">
</g>
<g
   id="g23"
   transform="translate(31.108322,-31.108464)">
</g>
<g
   id="g25"
   transform="translate(31.108322,-31.108464)">
</g>
<g
   id="g27"
   transform="translate(31.108322,-31.108464)">
</g>
<g
   id="g29"
   transform="translate(31.108322,-31.108464)">
</g>
<g
   id="g31"
   transform="translate(31.108322,-31.108464)">
</g>
<g
   id="g33"
   transform="translate(31.108322,-31.108464)">
</g>
<g
   id="g35"
   transform="translate(31.108322,-31.108464)">
</g>
<g
   id="g37"
   transform="translate(31.108322,-31.108464)">
</g>
<g
   id="g939"
   transform="translate(71.988196,-74.917514)"
   clip-path="url(#clipPath943)"
   style="fill:#ffffff"><g
     id="g881"
     style="fill:#ffffff">
	<g
   id="_x33_58._Pause"
   style="fill:#ffffff">
		<g
   id="g878"
   style="fill:#ffffff">
			<path
   id="path876"
   d="m 125.632,109.931 c -8.666,0 -15.701,7.027 -15.701,15.701 v 62.793 c 0,8.668 7.035,15.701 15.701,15.701 8.666,0 15.701,-7.033 15.701,-15.701 v -62.793 c 0,-8.682 -7.035,-15.701 -15.701,-15.701 z M 293.002,78.529 C 249.646,3.434 153.618,-22.298 78.529,21.066 3.434,64.417 -22.298,160.44 21.066,235.532 c 43.35,75.095 139.375,100.83 214.465,57.47 75.096,-43.364 100.832,-139.384 57.471,-214.473 z M 219.834,265.8 C 159.767,300.492 82.94,279.906 48.258,219.827 13.568,159.76 34.161,82.933 94.23,48.259 154.301,13.569 231.124,34.153 265.808,94.23 300.493,154.305 279.906,231.115 219.834,265.8 Z M 188.432,109.931 c -8.664,0 -15.701,7.027 -15.701,15.701 v 62.793 c 0,8.668 7.037,15.709 15.701,15.709 8.668,0 15.701,-7.033 15.701,-15.709 v -62.793 c 0,-8.682 -7.033,-15.701 -15.701,-15.701 z"
   inkscape:connector-curvature="0"
   style="fill:#ffffff" />
		</g>
	</g>
</g><g
     id="g883"
     style="fill:#ffffff">
</g><g
     id="g885"
     style="fill:#ffffff">
</g><g
     id="g887"
     style="fill:#ffffff">
</g><g
     id="g889"
     style="fill:#ffffff">
</g><g
     id="g891"
     style="fill:#ffffff">
</g><g
     id="g893"
     style="fill:#ffffff">
</g><g
     id="g895"
     style="fill:#ffffff">
</g><g
     id="g897"
     style="fill:#ffffff">
</g><g
     id="g899"
     style="fill:#ffffff">
</g><g
     id="g901"
     style="fill:#ffffff">
</g><g
     id="g903"
     style="fill:#ffffff">
</g><g
     id="g905"
     style="fill:#ffffff">
</g><g
     id="g907"
     style="fill:#ffffff">
</g><g
     id="g909"
     style="fill:#ffffff">
</g><g
     id="g911"
     style="fill:#ffffff">
</g></g></svg>