
<svg xmlns="http://www.w3.org/2000/svg" version="1.1" xmlns:xlink="http://www.w3.org/1999/xlink" preserveAspectRatio="none" x="0px" y="0px" width="857px" height="601px" viewBox="0 0 857 601">
<defs>
<g id="Symbol_4_copy_4_0_Layer0_0_FILL">
<path fill="#444444" stroke="none" d="
M 151.25 -75.8
Q 151.1052734375 -75.9482421875 150.9 -75.95
L 0 -75.95
Q -0.2052734375 -75.9482421875 -0.35 -75.8 -0.4982421875 -75.6552734375 -0.5 -75.45
L -0.5 75.45
Q -0.4982421875 75.6552734375 -0.35 75.8 -0.2052734375 75.9482421875 0 75.95
L 150.9 75.95
Q 151.1052734375 75.9482421875 151.25 75.8 151.3982421875 75.6552734375 151.4 75.45
L 151.4 -75.45
Q 151.3982421875 -75.6552734375 151.25 -75.8
M 0.5 -74.95
L 150.4 -74.95 150.4 74.95 0.5 74.95 0.5 -74.95 Z"/>

<path fill="#F8E8CE" stroke="none" d="
M 150.4 -74.95
L 0.5 -74.95 0.5 74.95 150.4 74.95 150.4 -74.95
M 149.65 -74.4
L 149.65 -74.2 149.85 -74.4 149.85 74.2 1.5 74.2 1.25 74.2 1.25 -74.4 149.65 -74.4 Z"/>

<path fill="#FFFFFF" stroke="none" d="
M 143.2 -67.65
L 149.65 -74.2 149.65 -74.4 1.25 -74.4 1.25 74.2 1.5 74.2 8 67.75 8 -67.65 143.2 -67.65 Z"/>

<path fill="#AAAAAA" stroke="none" d="
M 143.2 -67.65
L 143.1 -67.55 143.1 67.45 8.35 67.45 8 67.75 1.5 74.2 149.85 74.2 149.85 -74.4 149.65 -74.2 143.2 -67.65 Z"/>

<path fill="#C5E470" stroke="none" d="
M 143.1 -67.55
L 143.2 -67.65 8 -67.65 8 67.75 8.35 67.45 143.1 67.45 143.1 -67.55 Z"/>
</g>

<g id="Symbol_4_0_Layer0_0_FILL">
<path fill="#444444" stroke="none" d="
M 151.25 -75.8
Q 151.1052734375 -75.9482421875 150.9 -75.95
L 0 -75.95
Q -0.2052734375 -75.9482421875 -0.35 -75.8 -0.4982421875 -75.6552734375 -0.5 -75.45
L -0.5 75.45
Q -0.4982421875 75.6552734375 -0.35 75.8 -0.2052734375 75.9482421875 0 75.95
L 150.9 75.95
Q 151.1052734375 75.9482421875 151.25 75.8 151.3982421875 75.6552734375 151.4 75.45
L 151.4 -75.45
Q 151.3982421875 -75.6552734375 151.25 -75.8
M 0.5 -74.95
L 150.4 -74.95 150.4 74.95 0.5 74.95 0.5 -74.95 Z"/>

<path fill="#F8E8CE" stroke="none" d="
M 150.4 -74.95
L 0.5 -74.95 0.5 74.95 150.4 74.95 150.4 -74.95
M 149.65 -74.4
L 149.65 -74.2 149.85 -74.4 149.85 74.2 1.5 74.2 1.25 74.2 1.25 -74.4 149.65 -74.4 Z"/>

<path fill="#FFFFFF" stroke="none" d="
M 143.2 -67.65
L 149.65 -74.2 149.65 -74.4 1.25 -74.4 1.25 74.2 1.5 74.2 8 67.75 8 -67.65 143.2 -67.65 Z"/>

<path fill="#AAAAAA" stroke="none" d="
M 143.2 -67.65
L 143.1 -67.55 143.1 67.45 8.35 67.45 8 67.75 1.5 74.2 149.85 74.2 149.85 -74.4 149.65 -74.2 143.2 -67.65 Z"/>

<path fill="#E5E5E5" stroke="none" d="
M 143.1 -67.55
L 143.2 -67.65 8 -67.65 8 67.75 8.35 67.45 143.1 67.45 143.1 -67.55 Z"/>
</g>

<g id="Symbol_4_copy_12_0_Layer0_0_FILL">
<path fill="#444444" stroke="none" d="
M 151.25 -75.8
Q 151.1052734375 -75.9482421875 150.9 -75.95
L 0 -75.95
Q -0.2052734375 -75.9482421875 -0.35 -75.8 -0.4982421875 -75.6552734375 -0.5 -75.45
L -0.5 75.45
Q -0.4982421875 75.6552734375 -0.35 75.8 -0.2052734375 75.9482421875 0 75.95
L 150.9 75.95
Q 151.1052734375 75.9482421875 151.25 75.8 151.3982421875 75.6552734375 151.4 75.45
L 151.4 -75.45
Q 151.3982421875 -75.6552734375 151.25 -75.8
M 0.5 -74.95
L 150.4 -74.95 150.4 74.95 0.5 74.95 0.5 -74.95 Z"/>

<path fill="#F8E8CE" stroke="none" d="
M 150.4 -74.95
L 0.5 -74.95 0.5 74.95 150.4 74.95 150.4 -74.95
M 149.65 -74.4
L 149.65 -74.2 149.85 -74.4 149.85 74.2 1.5 74.2 1.25 74.2 1.25 -74.4 149.65 -74.4 Z"/>

<path fill="#FFFFFF" stroke="none" d="
M 143.2 -67.65
L 149.65 -74.2 149.65 -74.4 1.25 -74.4 1.25 74.2 1.5 74.2 8 67.75 8 -67.65 143.2 -67.65 Z"/>

<path fill="#AAAAAA" stroke="none" d="
M 143.2 -67.65
L 143.1 -67.55 143.1 67.45 8.35 67.45 8 67.75 1.5 74.2 149.85 74.2 149.85 -74.4 149.65 -74.2 143.2 -67.65 Z"/>

<path fill="#F0C419" stroke="none" d="
M 143.1 -67.55
L 143.2 -67.65 8 -67.65 8 67.75 8.35 67.45 143.1 67.45 143.1 -67.55 Z"/>
</g>

<g id="Symbol_4_copy_5_0_Layer0_0_FILL">
<path fill="#444444" stroke="none" d="
M 151.25 -75.8
Q 151.1052734375 -75.9482421875 150.9 -75.95
L 0 -75.95
Q -0.2052734375 -75.9482421875 -0.35 -75.8 -0.4982421875 -75.6552734375 -0.5 -75.45
L -0.5 75.45
Q -0.4982421875 75.6552734375 -0.35 75.8 -0.2052734375 75.9482421875 0 75.95
L 150.9 75.95
Q 151.1052734375 75.9482421875 151.25 75.8 151.3982421875 75.6552734375 151.4 75.45
L 151.4 -75.45
Q 151.3982421875 -75.6552734375 151.25 -75.8
M 0.5 -74.95
L 150.4 -74.95 150.4 74.95 0.5 74.95 0.5 -74.95 Z"/>

<path fill="#F8E8CE" stroke="none" d="
M 150.4 -74.95
L 0.5 -74.95 0.5 74.95 150.4 74.95 150.4 -74.95
M 149.65 -74.4
L 149.65 -74.2 149.85 -74.4 149.85 74.2 1.5 74.2 1.25 74.2 1.25 -74.4 149.65 -74.4 Z"/>

<path fill="#FFFFFF" stroke="none" d="
M 143.2 -67.65
L 149.65 -74.2 149.65 -74.4 1.25 -74.4 1.25 74.2 1.5 74.2 8 67.75 8 -67.65 143.2 -67.65 Z"/>

<path fill="#AAAAAA" stroke="none" d="
M 143.2 -67.65
L 143.1 -67.55 143.1 67.45 8.35 67.45 8 67.75 1.5 74.2 149.85 74.2 149.85 -74.4 149.65 -74.2 143.2 -67.65 Z"/>

<path fill="#B1C63D" stroke="none" d="
M 143.1 -67.55
L 143.2 -67.65 8 -67.65 8 67.75 8.35 67.45 143.1 67.45 143.1 -67.55 Z"/>
</g>

<g id="Symbol_4_copy_8_0_Layer0_0_FILL">
<path fill="#444444" stroke="none" d="
M 151.25 -75.8
Q 151.1052734375 -75.9482421875 150.9 -75.95
L 0 -75.95
Q -0.2052734375 -75.9482421875 -0.35 -75.8 -0.4982421875 -75.6552734375 -0.5 -75.45
L -0.5 75.45
Q -0.4982421875 75.6552734375 -0.35 75.8 -0.2052734375 75.9482421875 0 75.95
L 150.9 75.95
Q 151.1052734375 75.9482421875 151.25 75.8 151.3982421875 75.6552734375 151.4 75.45
L 151.4 -75.45
Q 151.3982421875 -75.6552734375 151.25 -75.8
M 0.5 -74.95
L 150.4 -74.95 150.4 74.95 0.5 74.95 0.5 -74.95 Z"/>

<path fill="#F8E8CE" stroke="none" d="
M 150.4 -74.95
L 0.5 -74.95 0.5 74.95 150.4 74.95 150.4 -74.95
M 149.65 -74.4
L 149.65 -74.2 149.85 -74.4 149.85 74.2 1.5 74.2 1.25 74.2 1.25 -74.4 149.65 -74.4 Z"/>

<path fill="#FFFFFF" stroke="none" d="
M 143.2 -67.65
L 149.65 -74.2 149.65 -74.4 1.25 -74.4 1.25 74.2 1.5 74.2 8 67.75 8 -67.65 143.2 -67.65 Z"/>

<path fill="#AAAAAA" stroke="none" d="
M 143.2 -67.65
L 143.1 -67.55 143.1 67.45 8.35 67.45 8 67.75 1.5 74.2 149.85 74.2 149.85 -74.4 149.65 -74.2 143.2 -67.65 Z"/>

<path fill="#FD6096" stroke="none" d="
M 143.1 -67.55
L 143.2 -67.65 8 -67.65 8 67.75 8.35 67.45 143.1 67.45 143.1 -67.55 Z"/>
</g>

<g id="Symbol_4_copy_3_0_Layer0_0_FILL">
<path fill="#444444" stroke="none" d="
M 151.25 -75.8
Q 151.1052734375 -75.9482421875 150.9 -75.95
L 0 -75.95
Q -0.2052734375 -75.9482421875 -0.35 -75.8 -0.4982421875 -75.6552734375 -0.5 -75.45
L -0.5 75.45
Q -0.4982421875 75.6552734375 -0.35 75.8 -0.2052734375 75.9482421875 0 75.95
L 150.9 75.95
Q 151.1052734375 75.9482421875 151.25 75.8 151.3982421875 75.6552734375 151.4 75.45
L 151.4 -75.45
Q 151.3982421875 -75.6552734375 151.25 -75.8
M 0.5 -74.95
L 150.4 -74.95 150.4 74.95 0.5 74.95 0.5 -74.95 Z"/>

<path fill="#F8E8CE" stroke="none" d="
M 150.4 -74.95
L 0.5 -74.95 0.5 74.95 150.4 74.95 150.4 -74.95
M 149.65 -74.4
L 149.65 -74.2 149.85 -74.4 149.85 74.2 1.5 74.2 1.25 74.2 1.25 -74.4 149.65 -74.4 Z"/>

<path fill="#FFFFFF" stroke="none" d="
M 143.2 -67.65
L 149.65 -74.2 149.65 -74.4 1.25 -74.4 1.25 74.2 1.5 74.2 8 67.75 8 -67.65 143.2 -67.65 Z"/>

<path fill="#AAAAAA" stroke="none" d="
M 143.2 -67.65
L 143.1 -67.55 143.1 67.45 8.35 67.45 8 67.75 1.5 74.2 149.85 74.2 149.85 -74.4 149.65 -74.2 143.2 -67.65 Z"/>

<path fill="#971A5A" stroke="none" d="
M 143.1 -67.55
L 143.2 -67.65 8 -67.65 8 67.75 8.35 67.45 143.1 67.45 143.1 -67.55 Z"/>
</g>

<g id="Symbol_4_copy_13_0_Layer0_0_FILL">
<path fill="#444444" stroke="none" d="
M 151.25 -75.8
Q 151.1052734375 -75.9482421875 150.9 -75.95
L 0 -75.95
Q -0.2052734375 -75.9482421875 -0.35 -75.8 -0.4982421875 -75.6552734375 -0.5 -75.45
L -0.5 75.45
Q -0.4982421875 75.6552734375 -0.35 75.8 -0.2052734375 75.9482421875 0 75.95
L 150.9 75.95
Q 151.1052734375 75.9482421875 151.25 75.8 151.3982421875 75.6552734375 151.4 75.45
L 151.4 -75.45
Q 151.3982421875 -75.6552734375 151.25 -75.8
M 0.5 -74.95
L 150.4 -74.95 150.4 74.95 0.5 74.95 0.5 -74.95 Z"/>

<path fill="#F8E8CE" stroke="none" d="
M 150.4 -74.95
L 0.5 -74.95 0.5 74.95 150.4 74.95 150.4 -74.95
M 149.65 -74.4
L 149.65 -74.2 149.85 -74.4 149.85 74.2 1.5 74.2 1.25 74.2 1.25 -74.4 149.65 -74.4 Z"/>

<path fill="#FFFFFF" stroke="none" d="
M 143.2 -67.65
L 149.65 -74.2 149.65 -74.4 1.25 -74.4 1.25 74.2 1.5 74.2 8 67.75 8 -67.65 143.2 -67.65 Z"/>

<path fill="#AAAAAA" stroke="none" d="
M 143.2 -67.65
L 143.1 -67.55 143.1 67.45 8.35 67.45 8 67.75 1.5 74.2 149.85 74.2 149.85 -74.4 149.65 -74.2 143.2 -67.65 Z"/>

<path fill="#E5E5E5" stroke="none" d="
M 143.1 -67.55
L 143.2 -67.65 8 -67.65 8 67.75 8.35 67.45 143.1 67.45 143.1 -67.55 Z"/>
</g>

<g id="Symbol_4_copy_11_0_Layer0_0_FILL">
<path fill="#444444" stroke="none" d="
M 151.25 -75.8
Q 151.1052734375 -75.9482421875 150.9 -75.95
L 0 -75.95
Q -0.2052734375 -75.9482421875 -0.35 -75.8 -0.4982421875 -75.6552734375 -0.5 -75.45
L -0.5 75.45
Q -0.4982421875 75.6552734375 -0.35 75.8 -0.2052734375 75.9482421875 0 75.95
L 150.9 75.95
Q 151.1052734375 75.9482421875 151.25 75.8 151.3982421875 75.6552734375 151.4 75.45
L 151.4 -75.45
Q 151.3982421875 -75.6552734375 151.25 -75.8
M 0.5 -74.95
L 150.4 -74.95 150.4 74.95 0.5 74.95 0.5 -74.95 Z"/>

<path fill="#F8E8CE" stroke="none" d="
M 150.4 -74.95
L 0.5 -74.95 0.5 74.95 150.4 74.95 150.4 -74.95
M 149.65 -74.4
L 149.65 -74.2 149.85 -74.4 149.85 74.2 1.5 74.2 1.25 74.2 1.25 -74.4 149.65 -74.4 Z"/>

<path fill="#FFFFFF" stroke="none" d="
M 143.2 -67.65
L 149.65 -74.2 149.65 -74.4 1.25 -74.4 1.25 74.2 1.5 74.2 8 67.75 8 -67.65 143.2 -67.65 Z"/>

<path fill="#AAAAAA" stroke="none" d="
M 143.2 -67.65
L 143.1 -67.55 143.1 67.45 8.35 67.45 8 67.75 1.5 74.2 149.85 74.2 149.85 -74.4 149.65 -74.2 143.2 -67.65 Z"/>

<path fill="#F08A27" stroke="none" d="
M 143.1 -67.55
L 143.2 -67.65 8 -67.65 8 67.75 8.35 67.45 143.1 67.45 143.1 -67.55 Z"/>
</g>

<g id="Symbol_4_copy_7_0_Layer0_0_FILL">
<path fill="#444444" stroke="none" d="
M 151.25 -75.8
Q 151.1052734375 -75.9482421875 150.9 -75.95
L 0 -75.95
Q -0.2052734375 -75.9482421875 -0.35 -75.8 -0.4982421875 -75.6552734375 -0.5 -75.45
L -0.5 75.45
Q -0.4982421875 75.6552734375 -0.35 75.8 -0.2052734375 75.9482421875 0 75.95
L 150.9 75.95
Q 151.1052734375 75.9482421875 151.25 75.8 151.3982421875 75.6552734375 151.4 75.45
L 151.4 -75.45
Q 151.3982421875 -75.6552734375 151.25 -75.8
M 0.5 -74.95
L 150.4 -74.95 150.4 74.95 0.5 74.95 0.5 -74.95 Z"/>

<path fill="#F8E8CE" stroke="none" d="
M 150.4 -74.95
L 0.5 -74.95 0.5 74.95 150.4 74.95 150.4 -74.95
M 149.65 -74.4
L 149.65 -74.2 149.85 -74.4 149.85 74.2 1.5 74.2 1.25 74.2 1.25 -74.4 149.65 -74.4 Z"/>

<path fill="#FFFFFF" stroke="none" d="
M 143.2 -67.65
L 149.65 -74.2 149.65 -74.4 1.25 -74.4 1.25 74.2 1.5 74.2 8 67.75 8 -67.65 143.2 -67.65 Z"/>

<path fill="#AAAAAA" stroke="none" d="
M 143.2 -67.65
L 143.1 -67.55 143.1 67.45 8.35 67.45 8 67.75 1.5 74.2 149.85 74.2 149.85 -74.4 149.65 -74.2 143.2 -67.65 Z"/>

<path fill="#FA2626" stroke="none" d="
M 143.1 -67.55
L 143.2 -67.65 8 -67.65 8 67.75 8.35 67.45 143.1 67.45 143.1 -67.55 Z"/>
</g>

<g id="Symbol_4_copy_6_0_Layer0_0_FILL">
<path fill="#444444" stroke="none" d="
M 151.25 -75.8
Q 151.1052734375 -75.9482421875 150.9 -75.95
L 0 -75.95
Q -0.2052734375 -75.9482421875 -0.35 -75.8 -0.4982421875 -75.6552734375 -0.5 -75.45
L -0.5 75.45
Q -0.4982421875 75.6552734375 -0.35 75.8 -0.2052734375 75.9482421875 0 75.95
L 150.9 75.95
Q 151.1052734375 75.9482421875 151.25 75.8 151.3982421875 75.6552734375 151.4 75.45
L 151.4 -75.45
Q 151.3982421875 -75.6552734375 151.25 -75.8
M 0.5 -74.95
L 150.4 -74.95 150.4 74.95 0.5 74.95 0.5 -74.95 Z"/>

<path fill="#F8E8CE" stroke="none" d="
M 150.4 -74.95
L 0.5 -74.95 0.5 74.95 150.4 74.95 150.4 -74.95
M 149.65 -74.4
L 149.65 -74.2 149.85 -74.4 149.85 74.2 1.5 74.2 1.25 74.2 1.25 -74.4 149.65 -74.4 Z"/>

<path fill="#FFFFFF" stroke="none" d="
M 143.2 -67.65
L 149.65 -74.2 149.65 -74.4 1.25 -74.4 1.25 74.2 1.5 74.2 8 67.75 8 -67.65 143.2 -67.65 Z"/>

<path fill="#AAAAAA" stroke="none" d="
M 143.2 -67.65
L 143.1 -67.55 143.1 67.45 8.35 67.45 8 67.75 1.5 74.2 149.85 74.2 149.85 -74.4 149.65 -74.2 143.2 -67.65 Z"/>

<path fill="#55E853" stroke="none" d="
M 143.1 -67.55
L 143.2 -67.65 8 -67.65 8 67.75 8.35 67.45 143.1 67.45 143.1 -67.55 Z"/>
</g>

<g id="Symbol_4_copy_10_0_Layer0_0_FILL">
<path fill="#444444" stroke="none" d="
M 151.25 -75.8
Q 151.1052734375 -75.9482421875 150.9 -75.95
L 0 -75.95
Q -0.2052734375 -75.9482421875 -0.35 -75.8 -0.4982421875 -75.6552734375 -0.5 -75.45
L -0.5 75.45
Q -0.4982421875 75.6552734375 -0.35 75.8 -0.2052734375 75.9482421875 0 75.95
L 150.9 75.95
Q 151.1052734375 75.9482421875 151.25 75.8 151.3982421875 75.6552734375 151.4 75.45
L 151.4 -75.45
Q 151.3982421875 -75.6552734375 151.25 -75.8
M 0.5 -74.95
L 150.4 -74.95 150.4 74.95 0.5 74.95 0.5 -74.95 Z"/>

<path fill="#F8E8CE" stroke="none" d="
M 150.4 -74.95
L 0.5 -74.95 0.5 74.95 150.4 74.95 150.4 -74.95
M 149.65 -74.4
L 149.65 -74.2 149.85 -74.4 149.85 74.2 1.5 74.2 1.25 74.2 1.25 -74.4 149.65 -74.4 Z"/>

<path fill="#FFFFFF" stroke="none" d="
M 143.2 -67.65
L 149.65 -74.2 149.65 -74.4 1.25 -74.4 1.25 74.2 1.5 74.2 8 67.75 8 -67.65 143.2 -67.65 Z"/>

<path fill="#AAAAAA" stroke="none" d="
M 143.2 -67.65
L 143.1 -67.55 143.1 67.45 8.35 67.45 8 67.75 1.5 74.2 149.85 74.2 149.85 -74.4 149.65 -74.2 143.2 -67.65 Z"/>

<path fill="#BDBDBD" stroke="none" d="
M 143.1 -67.55
L 143.2 -67.65 8 -67.65 8 67.75 8.35 67.45 143.1 67.45 143.1 -67.55 Z"/>
</g>

<g id="Symbol_4_copy_14_0_Layer0_0_FILL">
<path fill="#444444" stroke="none" d="
M 151.25 -75.8
Q 151.1052734375 -75.9482421875 150.9 -75.95
L 0 -75.95
Q -0.2052734375 -75.9482421875 -0.35 -75.8 -0.4982421875 -75.6552734375 -0.5 -75.45
L -0.5 75.45
Q -0.4982421875 75.6552734375 -0.35 75.8 -0.2052734375 75.9482421875 0 75.95
L 150.9 75.95
Q 151.1052734375 75.9482421875 151.25 75.8 151.3982421875 75.6552734375 151.4 75.45
L 151.4 -75.45
Q 151.3982421875 -75.6552734375 151.25 -75.8
M 0.5 -74.95
L 150.4 -74.95 150.4 74.95 0.5 74.95 0.5 -74.95 Z"/>

<path fill="#F8E8CE" stroke="none" d="
M 150.4 -74.95
L 0.5 -74.95 0.5 74.95 150.4 74.95 150.4 -74.95
M 149.65 -74.4
L 149.65 -74.2 149.85 -74.4 149.85 74.2 1.5 74.2 1.25 74.2 1.25 -74.4 149.65 -74.4 Z"/>

<path fill="#FFFFFF" stroke="none" d="
M 143.2 -67.65
L 149.65 -74.2 149.65 -74.4 1.25 -74.4 1.25 74.2 1.5 74.2 8 67.75 8 -67.65 143.2 -67.65 Z"/>

<path fill="#AAAAAA" stroke="none" d="
M 143.2 -67.65
L 143.1 -67.55 143.1 67.45 8.35 67.45 8 67.75 1.5 74.2 149.85 74.2 149.85 -74.4 149.65 -74.2 143.2 -67.65 Z"/>

<path fill="#A35E1A" stroke="none" d="
M 143.1 -67.55
L 143.2 -67.65 8 -67.65 8 67.75 8.35 67.45 143.1 67.45 143.1 -67.55 Z"/>
</g>

<g id="Symbol_4_copy_15_0_Layer0_0_FILL">
<path fill="#444444" stroke="none" d="
M 151.25 -75.8
Q 151.1052734375 -75.9482421875 150.9 -75.95
L 0 -75.95
Q -0.2052734375 -75.9482421875 -0.35 -75.8 -0.4982421875 -75.6552734375 -0.5 -75.45
L -0.5 75.45
Q -0.4982421875 75.6552734375 -0.35 75.8 -0.2052734375 75.9482421875 0 75.95
L 150.9 75.95
Q 151.1052734375 75.9482421875 151.25 75.8 151.3982421875 75.6552734375 151.4 75.45
L 151.4 -75.45
Q 151.3982421875 -75.6552734375 151.25 -75.8
M 0.5 -74.95
L 150.4 -74.95 150.4 74.95 0.5 74.95 0.5 -74.95 Z"/>

<path fill="#F8E8CE" stroke="none" d="
M 150.4 -74.95
L 0.5 -74.95 0.5 74.95 150.4 74.95 150.4 -74.95
M 149.65 -74.4
L 149.65 -74.2 149.85 -74.4 149.85 74.2 1.5 74.2 1.25 74.2 1.25 -74.4 149.65 -74.4 Z"/>

<path fill="#FFFFFF" stroke="none" d="
M 143.2 -67.65
L 149.65 -74.2 149.65 -74.4 1.25 -74.4 1.25 74.2 1.5 74.2 8 67.75 8 -67.65 143.2 -67.65 Z"/>

<path fill="#AAAAAA" stroke="none" d="
M 143.2 -67.65
L 143.1 -67.55 143.1 67.45 8.35 67.45 8 67.75 1.5 74.2 149.85 74.2 149.85 -74.4 149.65 -74.2 143.2 -67.65 Z"/>

<path fill="#E879E0" stroke="none" d="
M 143.1 -67.55
L 143.2 -67.65 8 -67.65 8 67.75 8.35 67.45 143.1 67.45 143.1 -67.55 Z"/>
</g>

<g id="Symbol_4_copy_0_Layer0_0_FILL">
<path fill="#444444" stroke="none" d="
M 151.25 -75.8
Q 151.1052734375 -75.9482421875 150.9 -75.95
L 0 -75.95
Q -0.2052734375 -75.9482421875 -0.35 -75.8 -0.4982421875 -75.6552734375 -0.5 -75.45
L -0.5 75.45
Q -0.4982421875 75.6552734375 -0.35 75.8 -0.2052734375 75.9482421875 0 75.95
L 150.9 75.95
Q 151.1052734375 75.9482421875 151.25 75.8 151.3982421875 75.6552734375 151.4 75.45
L 151.4 -75.45
Q 151.3982421875 -75.6552734375 151.25 -75.8
M 0.5 -74.95
L 150.4 -74.95 150.4 74.95 0.5 74.95 0.5 -74.95 Z"/>

<path fill="#F8E8CE" stroke="none" d="
M 150.4 -74.95
L 0.5 -74.95 0.5 74.95 150.4 74.95 150.4 -74.95
M 149.65 -74.4
L 149.65 -74.2 149.85 -74.4 149.85 74.2 1.5 74.2 1.25 74.2 1.25 -74.4 149.65 -74.4 Z"/>

<path fill="#FFFFFF" stroke="none" d="
M 143.2 -67.65
L 149.65 -74.2 149.65 -74.4 1.25 -74.4 1.25 74.2 1.5 74.2 8 67.75 8 -67.65 143.2 -67.65 Z"/>

<path fill="#AAAAAA" stroke="none" d="
M 143.2 -67.65
L 143.1 -67.55 143.1 67.45 8.35 67.45 8 67.75 1.5 74.2 149.85 74.2 149.85 -74.4 149.65 -74.2 143.2 -67.65 Z"/>

<path fill="#38A6E4" stroke="none" d="
M 143.1 -67.55
L 143.2 -67.65 8 -67.65 8 67.75 8.35 67.45 143.1 67.45 143.1 -67.55 Z"/>
</g>

<g id="Symbol_4_copy_9_0_Layer0_0_FILL">
<path fill="#444444" stroke="none" d="
M 151.25 -75.8
Q 151.1052734375 -75.9482421875 150.9 -75.95
L 0 -75.95
Q -0.2052734375 -75.9482421875 -0.35 -75.8 -0.4982421875 -75.6552734375 -0.5 -75.45
L -0.5 75.45
Q -0.4982421875 75.6552734375 -0.35 75.8 -0.2052734375 75.9482421875 0 75.95
L 150.9 75.95
Q 151.1052734375 75.9482421875 151.25 75.8 151.3982421875 75.6552734375 151.4 75.45
L 151.4 -75.45
Q 151.3982421875 -75.6552734375 151.25 -75.8
M 0.5 -74.95
L 150.4 -74.95 150.4 74.95 0.5 74.95 0.5 -74.95 Z"/>

<path fill="#F8E8CE" stroke="none" d="
M 150.4 -74.95
L 0.5 -74.95 0.5 74.95 150.4 74.95 150.4 -74.95
M 149.65 -74.4
L 149.65 -74.2 149.85 -74.4 149.85 74.2 1.5 74.2 1.25 74.2 1.25 -74.4 149.65 -74.4 Z"/>

<path fill="#FFFFFF" stroke="none" d="
M 143.2 -67.65
L 149.65 -74.2 149.65 -74.4 1.25 -74.4 1.25 74.2 1.5 74.2 8 67.75 8 -67.65 143.2 -67.65 Z"/>

<path fill="#AAAAAA" stroke="none" d="
M 143.2 -67.65
L 143.1 -67.55 143.1 67.45 8.35 67.45 8 67.75 1.5 74.2 149.85 74.2 149.85 -74.4 149.65 -74.2 143.2 -67.65 Z"/>

<path fill="#364EC6" stroke="none" d="
M 143.1 -67.55
L 143.2 -67.65 8 -67.65 8 67.75 8.35 67.45 143.1 67.45 143.1 -67.55 Z"/>
</g>

<g id="Symbol_4_copy_2_0_Layer0_0_FILL">
<path fill="#444444" stroke="none" d="
M 151.25 -75.8
Q 151.1052734375 -75.9482421875 150.9 -75.95
L 0 -75.95
Q -0.2052734375 -75.9482421875 -0.35 -75.8 -0.4982421875 -75.6552734375 -0.5 -75.45
L -0.5 75.45
Q -0.4982421875 75.6552734375 -0.35 75.8 -0.2052734375 75.9482421875 0 75.95
L 150.9 75.95
Q 151.1052734375 75.9482421875 151.25 75.8 151.3982421875 75.6552734375 151.4 75.45
L 151.4 -75.45
Q 151.3982421875 -75.6552734375 151.25 -75.8
M 0.5 -74.95
L 150.4 -74.95 150.4 74.95 0.5 74.95 0.5 -74.95 Z"/>

<path fill="#F8E8CE" stroke="none" d="
M 150.4 -74.95
L 0.5 -74.95 0.5 74.95 150.4 74.95 150.4 -74.95
M 149.65 -74.4
L 149.65 -74.2 149.85 -74.4 149.85 74.2 1.5 74.2 1.25 74.2 1.25 -74.4 149.65 -74.4 Z"/>

<path fill="#FFFFFF" stroke="none" d="
M 143.2 -67.65
L 149.65 -74.2 149.65 -74.4 1.25 -74.4 1.25 74.2 1.5 74.2 8 67.75 8 -67.65 143.2 -67.65 Z"/>

<path fill="#AAAAAA" stroke="none" d="
M 143.2 -67.65
L 143.1 -67.55 143.1 67.45 8.35 67.45 8 67.75 1.5 74.2 149.85 74.2 149.85 -74.4 149.65 -74.2 143.2 -67.65 Z"/>

<path fill="#E5E5E5" stroke="none" d="
M 143.1 -67.55
L 143.2 -67.65 8 -67.65 8 67.75 8.35 67.45 143.1 67.45 143.1 -67.55 Z"/>
</g>
</defs>

<g transform="matrix( 1, 0, 0, 1, 0,0) ">
<g transform="matrix( 0.80828857421875, 0, 0, 0.80828857421875, 0.4,61.4) ">
<g transform="matrix( 1, 0, 0, 1, 0,0) ">
<use xlink:href="#Symbol_4_copy_4_0_Layer0_0_FILL"/>
</g>
</g>

<g transform="matrix( 0.80828857421875, 0, 0, 0.80828857421875, 122.85,61.4) ">
<g transform="matrix( 1, 0, 0, 1, 0,0) ">
<use xlink:href="#Symbol_4_0_Layer0_0_FILL"/>
</g>
</g>

<g transform="matrix( 0.80828857421875, 0, 0, 0.80828857421875, 245.3,61.4) ">
<g transform="matrix( 1, 0, 0, 1, 0,0) ">
<use xlink:href="#Symbol_4_copy_12_0_Layer0_0_FILL"/>
</g>
</g>

<g transform="matrix( 0.80828857421875, 0, 0, 0.80828857421875, 367.75,61.4) ">
<g transform="matrix( 1, 0, 0, 1, 0,0) ">
<use xlink:href="#Symbol_4_0_Layer0_0_FILL"/>
</g>
</g>

<g transform="matrix( 0.80828857421875, 0, 0, 0.80828857421875, 490.2,61.4) ">
<g transform="matrix( 1, 0, 0, 1, 0,0) ">
<use xlink:href="#Symbol_4_0_Layer0_0_FILL"/>
</g>
</g>

<g transform="matrix( 0.80828857421875, 0, 0, 0.80828857421875, 612.65,61.4) ">
<g transform="matrix( 1, 0, 0, 1, 0,0) ">
<use xlink:href="#Symbol_4_copy_5_0_Layer0_0_FILL"/>
</g>
</g>

<g transform="matrix( 0.80828857421875, 0, 0, 0.80828857421875, 735.2,61.4) ">
<g transform="matrix( 1, 0, 0, 1, 0,0) ">
<use xlink:href="#Symbol_4_0_Layer0_0_FILL"/>
</g>
</g>

<g transform="matrix( 0.80828857421875, 0, 0, 0.80828857421875, 0.4,181.05) ">
<g transform="matrix( 1, 0, 0, 1, 0,0) ">
<use xlink:href="#Symbol_4_0_Layer0_0_FILL"/>
</g>
</g>

<g transform="matrix( 0.80828857421875, 0, 0, 0.80828857421875, 122.85,181.05) ">
<g transform="matrix( 1, 0, 0, 1, 0,0) ">
<use xlink:href="#Symbol_4_copy_8_0_Layer0_0_FILL"/>
</g>
</g>

<g transform="matrix( 0.80828857421875, 0, 0, 0.80828857421875, 245.3,181.05) ">
<g transform="matrix( 1, 0, 0, 1, 0,0) ">
<use xlink:href="#Symbol_4_0_Layer0_0_FILL"/>
</g>
</g>

<g transform="matrix( 0.80828857421875, 0, 0, 0.80828857421875, 367.75,181.05) ">
<g transform="matrix( 1, 0, 0, 1, 0,0) ">
<use xlink:href="#Symbol_4_copy_3_0_Layer0_0_FILL"/>
</g>
</g>

<g transform="matrix( 0.80828857421875, 0, 0, 0.80828857421875, 490.2,181.05) ">
<g transform="matrix( 1, 0, 0, 1, 0,0) ">
<use xlink:href="#Symbol_4_0_Layer0_0_FILL"/>
</g>
</g>

<g transform="matrix( 0.80828857421875, 0, 0, 0.80828857421875, 612.65,181.05) ">
<g transform="matrix( 1, 0, 0, 1, 0,0) ">
<use xlink:href="#Symbol_4_0_Layer0_0_FILL"/>
</g>
</g>

<g transform="matrix( 0.80828857421875, 0, 0, 0.80828857421875, 735.2,181.05) ">
<g transform="matrix( 1, 0, 0, 1, 0,0) ">
<use xlink:href="#Symbol_4_copy_13_0_Layer0_0_FILL"/>
</g>
</g>

<g transform="matrix( 0.80828857421875, 0, 0, 0.80828857421875, 0.4,300.65) ">
<g transform="matrix( 1, 0, 0, 1, 0,0) ">
<use xlink:href="#Symbol_4_copy_11_0_Layer0_0_FILL"/>
</g>
</g>

<g transform="matrix( 0.80828857421875, 0, 0, 0.80828857421875, 122.85,300.65) ">
<g transform="matrix( 1, 0, 0, 1, 0,0) ">
<use xlink:href="#Symbol_4_0_Layer0_0_FILL"/>
</g>
</g>

<g transform="matrix( 0.80828857421875, 0, 0, 0.80828857421875, 245.3,300.65) ">
<g transform="matrix( 1, 0, 0, 1, 0,0) ">
<use xlink:href="#Symbol_4_0_Layer0_0_FILL"/>
</g>
</g>

<g transform="matrix( 0.80828857421875, 0, 0, 0.80828857421875, 367.75,300.65) ">
<g transform="matrix( 1, 0, 0, 1, 0,0) ">
<use xlink:href="#Symbol_4_copy_7_0_Layer0_0_FILL"/>
</g>
</g>

<g transform="matrix( 0.80828857421875, 0, 0, 0.80828857421875, 490.2,300.65) ">
<g transform="matrix( 1, 0, 0, 1, 0,0) ">
<use xlink:href="#Symbol_4_0_Layer0_0_FILL"/>
</g>
</g>

<g transform="matrix( 0.80828857421875, 0, 0, 0.80828857421875, 612.65,300.65) ">
<g transform="matrix( 1, 0, 0, 1, 0,0) ">
<use xlink:href="#Symbol_4_copy_6_0_Layer0_0_FILL"/>
</g>
</g>

<g transform="matrix( 0.80828857421875, 0, 0, 0.80828857421875, 735.2,300.65) ">
<g transform="matrix( 1, 0, 0, 1, 0,0) ">
<use xlink:href="#Symbol_4_0_Layer0_0_FILL"/>
</g>
</g>

<g transform="matrix( 0.80828857421875, 0, 0, 0.80828857421875, 0.4,420.3) ">
<g transform="matrix( 1, 0, 0, 1, 0,0) ">
<use xlink:href="#Symbol_4_0_Layer0_0_FILL"/>
</g>
</g>

<g transform="matrix( 0.80828857421875, 0, 0, 0.80828857421875, 122.85,420.3) ">
<g transform="matrix( 1, 0, 0, 1, 0,0) ">
<use xlink:href="#Symbol_4_copy_10_0_Layer0_0_FILL"/>
</g>
</g>

<g transform="matrix( 0.80828857421875, 0, 0, 0.80828857421875, 245.3,420.3) ">
<g transform="matrix( 1, 0, 0, 1, 0,0) ">
<use xlink:href="#Symbol_4_0_Layer0_0_FILL"/>
</g>
</g>

<g transform="matrix( 0.80828857421875, 0, 0, 0.80828857421875, 367.75,420.3) ">
<g transform="matrix( 1, 0, 0, 1, 0,0) ">
<use xlink:href="#Symbol_4_copy_14_0_Layer0_0_FILL"/>
</g>
</g>

<g transform="matrix( 0.80828857421875, 0, 0, 0.80828857421875, 490.2,420.3) ">
<g transform="matrix( 1, 0, 0, 1, 0,0) ">
<use xlink:href="#Symbol_4_0_Layer0_0_FILL"/>
</g>
</g>

<g transform="matrix( 0.80828857421875, 0, 0, 0.80828857421875, 612.65,420.3) ">
<g transform="matrix( 1, 0, 0, 1, 0,0) ">
<use xlink:href="#Symbol_4_copy_15_0_Layer0_0_FILL"/>
</g>
</g>

<g transform="matrix( 0.80828857421875, 0, 0, 0.80828857421875, 735.2,420.3) ">
<g transform="matrix( 1, 0, 0, 1, 0,0) ">
<use xlink:href="#Symbol_4_0_Layer0_0_FILL"/>
</g>
</g>

<g transform="matrix( 0.80828857421875, 0, 0, 0.80828857421875, 0.4,540.05) ">
<g transform="matrix( 1, 0, 0, 1, 0,0) ">
<use xlink:href="#Symbol_4_0_Layer0_0_FILL"/>
</g>
</g>

<g transform="matrix( 0.80828857421875, 0, 0, 0.80828857421875, 122.85,540.05) ">
<g transform="matrix( 1, 0, 0, 1, 0,0) ">
<use xlink:href="#Symbol_4_copy_0_Layer0_0_FILL"/>
</g>
</g>

<g transform="matrix( 0.80828857421875, 0, 0, 0.80828857421875, 245.3,540.05) ">
<g transform="matrix( 1, 0, 0, 1, 0,0) ">
<use xlink:href="#Symbol_4_0_Layer0_0_FILL"/>
</g>
</g>

<g transform="matrix( 0.80828857421875, 0, 0, 0.80828857421875, 367.75,540.05) ">
<g transform="matrix( 1, 0, 0, 1, 0,0) ">
<use xlink:href="#Symbol_4_0_Layer0_0_FILL"/>
</g>
</g>

<g transform="matrix( 0.80828857421875, 0, 0, 0.80828857421875, 490.2,540.05) ">
<g transform="matrix( 1, 0, 0, 1, 0,0) ">
<use xlink:href="#Symbol_4_copy_9_0_Layer0_0_FILL"/>
</g>
</g>

<g transform="matrix( 0.80828857421875, 0, 0, 0.80828857421875, 612.65,540.05) ">
<g transform="matrix( 1, 0, 0, 1, 0,0) ">
<use xlink:href="#Symbol_4_0_Layer0_0_FILL"/>
</g>
</g>

<g transform="matrix( 0.80828857421875, 0, 0, 0.80828857421875, 735.2,540.05) ">
<g transform="matrix( 1, 0, 0, 1, 0,0) ">
<use xlink:href="#Symbol_4_copy_2_0_Layer0_0_FILL"/>
</g>
</g>

<g transform="matrix( 1, 0, 0, 1, 500.55,159.25) ">
<clipPath id="Mask_Mask_1">
<rect x="-2" y="-2" width="103.75" height="41.85" fill="#FFFFFF" stroke="none"/>
</clipPath>

<text clip-path="url(#Mask_Mask_1)" writing-mode="lr"><tspan x="0" y="29.5" baseline-shift="0%" font-family="Calibri" font-weight="bold" font-size="31" fill="#ED7179" xml:space="preserve">βυσσινί</tspan></text>
</g>

<g transform="matrix( 1, 0, 0, 1, 279.05,159.25) ">
<clipPath id="Mask_Mask_2">
<rect x="-2" y="-2" width="48.55" height="41.85" fill="#FFFFFF" stroke="none"/>
</clipPath>

<text clip-path="url(#Mask_Mask_2)" writing-mode="lr"><tspan x="0" y="29.5" baseline-shift="0%" font-family="Calibri" font-weight="bold" font-size="31" fill="#ED7179" xml:space="preserve">ροζ</tspan></text>
</g>

<g transform="matrix( 1, 0, 0, 1, 252.95,519) ">
<clipPath id="Mask_Mask_3">
<rect x="-2" y="-2" width="106.3" height="41.85" fill="#FFFFFF" stroke="none"/>
</clipPath>

<text clip-path="url(#Mask_Mask_3)" writing-mode="lr"><tspan x="0" y="29.5" baseline-shift="0%" font-family="Calibri" font-weight="bold" font-size="31" fill="#ED7179" xml:space="preserve">γαλάζιο</tspan></text>
</g>

<g transform="matrix( 1, 0, 0, 1, 758.15,266.15) ">
<clipPath id="Mask_Mask_4">
<rect x="-2" y="-2" width="66.3" height="70.7" fill="#FFFFFF" stroke="none"/>
</clipPath>

<text clip-path="url(#Mask_Mask_4)" writing-mode="lr"><tspan x="0" y="29.5" baseline-shift="0%" font-family="Calibri" font-weight="bold" font-size="31" fill="#ED7179" xml:space="preserve">πρά-</tspan><tspan x="0" y="58.35" baseline-shift="0%" font-family="Calibri" font-weight="bold" font-size="31" fill="#ED7179" xml:space="preserve">σινο</tspan></text>
</g>

<g transform="matrix( 1, 0, 0, 1, 763.15,45.1) ">
<clipPath id="Mask_Mask_5">
<rect x="-2" y="-2" width="62.3" height="41.85" fill="#FFFFFF" stroke="none"/>
</clipPath>

<text clip-path="url(#Mask_Mask_5)" writing-mode="lr"><tspan x="0" y="29.5" baseline-shift="0%" font-family="Calibri" font-weight="bold" font-size="31" fill="#ED7179" xml:space="preserve">λαδί</tspan></text>
</g>

<g transform="matrix( 1, 0, 0, 1, 510.15,400) ">
<clipPath id="Mask_Mask_6">
<rect x="-2" y="-2" width="72.3" height="41.85" fill="#FFFFFF" stroke="none"/>
</clipPath>

<text clip-path="url(#Mask_Mask_6)" writing-mode="lr"><tspan x="0" y="29.5" baseline-shift="0%" font-family="Calibri" font-weight="bold" font-size="31" fill="#ED7179" xml:space="preserve">καφέ</tspan></text>
</g>

<g transform="matrix( 1, 0, 0, 1, 631.8,517.25) ">
<clipPath id="Mask_Mask_7">
<rect x="-2" y="-2" width="68.9" height="41.85" fill="#FFFFFF" stroke="none"/>
</clipPath>

<text clip-path="url(#Mask_Mask_7)" writing-mode="lr"><tspan x="0" y="29.5" baseline-shift="0%" font-family="Calibri" font-weight="bold" font-size="31" fill="#ED7179" xml:space="preserve">μπλέ</tspan></text>
</g>

<g transform="matrix( 1, 0, 0, 1, 138.2,260.25) ">
<clipPath id="Mask_Mask_8">
<rect x="-2" y="-2" width="93.15" height="76.7" fill="#FFFFFF" stroke="none"/>
</clipPath>

<text clip-path="url(#Mask_Mask_8)" writing-mode="lr"><tspan x="0" y="29.5" baseline-shift="0%" font-family="Calibri" font-weight="bold" font-size="31" fill="#ED7179" xml:space="preserve">πορτο-</tspan><tspan x="0" y="64.35" baseline-shift="0%" font-family="Calibri" font-weight="bold" font-size="31" fill="#ED7179" xml:space="preserve">καλί</tspan></text>
</g>

<g transform="matrix( 1, 0, 0, 1, 135.35,36.4) ">
<clipPath id="Mask_Mask_9">
<rect x="-2" y="-2" width="92.25" height="41.85" fill="#FFFFFF" stroke="none"/>
</clipPath>

<text clip-path="url(#Mask_Mask_9)" writing-mode="lr"><tspan x="0" y="29.5" baseline-shift="0%" font-family="Calibri" font-weight="bold" font-size="31" fill="#ED7179" xml:space="preserve">λαχανί</tspan></text>
</g>

<g transform="matrix( 1, 0, 0, 1, 760.85,400.75) ">
<clipPath id="Mask_Mask_10">
<rect x="-2" y="-2" width="60.75" height="41.85" fill="#FFFFFF" stroke="none"/>
</clipPath>

<text clip-path="url(#Mask_Mask_10)" writing-mode="lr"><tspan x="0" y="29.5" baseline-shift="0%" font-family="Calibri" font-weight="bold" font-size="31" fill="#ED7179" xml:space="preserve">μωβ</tspan></text>
</g>

<g transform="matrix( 1, 0, 0, 1, 500.25,281.95) ">
<clipPath id="Mask_Mask_11">
<rect x="-2" y="-2" width="104.15" height="41.85" fill="#FFFFFF" stroke="none"/>
</clipPath>

<text clip-path="url(#Mask_Mask_11)" writing-mode="lr"><tspan x="0" y="29.5" baseline-shift="0%" font-family="Calibri" font-weight="bold" font-size="31" fill="#ED7179" xml:space="preserve">κόκκινο</tspan></text>
</g>

<g transform="matrix( 1, 0, 0, 1, 382.45,39.65) ">
<clipPath id="Mask_Mask_12">
<rect x="-2" y="-2" width="95.25" height="41.85" fill="#FFFFFF" stroke="none"/>
</clipPath>

<text clip-path="url(#Mask_Mask_12)" writing-mode="lr"><tspan x="0" y="29.5" baseline-shift="0%" font-family="Calibri" font-weight="bold" font-size="31" fill="#ED7179" xml:space="preserve">κίτρινο</tspan></text>
</g>
</g>
</svg>
