<?xml version="1.0" encoding="UTF-8" standalone="no"?>
<!-- Created with Inkscape (http://www.inkscape.org/) -->

<svg
   xmlns:dc="http://purl.org/dc/elements/1.1/"
   xmlns:cc="http://creativecommons.org/ns#"
   xmlns:rdf="http://www.w3.org/1999/02/22-rdf-syntax-ns#"
   xmlns:svg="http://www.w3.org/2000/svg"
   xmlns="http://www.w3.org/2000/svg"
   xmlns:sodipodi="http://sodipodi.sourceforge.net/DTD/sodipodi-0.dtd"
   xmlns:inkscape="http://www.inkscape.org/namespaces/inkscape"
   width="27.128189mm"
   height="36.931217mm"
   viewBox="0 0 27.128189 36.931217"
   version="1.1"
   id="svg2116"
   inkscape:version="0.92.4 (5da689c313, 2019-01-14)"
   sodipodi:docname="eprobot.svg">
  <defs
     id="defs2110" />
  <sodipodi:namedview
     id="base"
     pagecolor="#ffffff"
     bordercolor="#666666"
     borderopacity="1.0"
     inkscape:pageopacity="0.0"
     inkscape:pageshadow="2"
     inkscape:zoom="1"
     inkscape:cx="80.84555"
     inkscape:cy="-82.575247"
     inkscape:document-units="mm"
     inkscape:current-layer="layer1"
     showgrid="false"
     fit-margin-top="0"
     fit-margin-left="0"
     fit-margin-right="0"
     fit-margin-bottom="0"
     inkscape:window-width="1366"
     inkscape:window-height="705"
     inkscape:window-x="-8"
     inkscape:window-y="-8"
     inkscape:window-maximized="1" />
  <metadata
     id="metadata2113">
    <rdf:RDF>
      <cc:Work
         rdf:about="">
        <dc:format>image/svg+xml</dc:format>
        <dc:type
           rdf:resource="http://purl.org/dc/dcmitype/StillImage" />
        <dc:title></dc:title>
      </cc:Work>
    </rdf:RDF>
  </metadata>
  <g
     inkscape:label="Layer 1"
     inkscape:groupmode="layer"
     id="layer1"
     transform="translate(-84.442948,-59.670997)">
    <path
       inkscape:connector-curvature="0"
       id="path24"
       style="fill:#ed1c24;fill-opacity:1;fill-rule:evenodd;stroke:none;stroke-width:0.03527778"
       d="m 84.447704,81.940568 c -0.196435,-8.267159 5.716897,-15.115603 13.203729,-15.293651 7.487837,-0.177705 13.718527,6.382822 13.914967,14.64998 0.19603,8.26702 -5.71664,15.115695 -13.203731,15.293651 -7.487054,0.177604 -13.718315,-6.382374 -13.914965,-14.64998" />
    <path
       inkscape:connector-curvature="0"
       id="path26"
       style="fill:#231f20;fill-opacity:1;fill-rule:evenodd;stroke:none;stroke-width:0.03527778"
       d="m 97.871123,96.602212 -0.710448,-29.943737 0.706567,-0.0165 0.710678,29.943072 -0.706797,0.01716" />
    <path
       inkscape:connector-curvature="0"
       id="path28"
       style="fill:#231f20;fill-opacity:1;fill-rule:evenodd;stroke:none;stroke-width:0.03527778"
       d="m 102.19527,66.109562 c 0.0455,1.909819 -2.05206,3.509337 -4.683055,3.571535 -2.631114,0.06253 -4.801755,-1.4356 -4.847146,-3.345748 -0.04472,-1.909922 2.05206,-3.509338 4.683174,-3.571868 2.631,-0.0622 4.801637,1.435932 4.847027,3.346081" />
    <path
       inkscape:connector-curvature="0"
       id="path30"
       style="fill:#231f20;fill-opacity:1;fill-rule:evenodd;stroke:none;stroke-width:0.03527778"
       d="m 91.461636,88.554584 c -0.02602,-1.091436 0.838764,-1.997306 1.929985,-2.02377 1.091321,-0.02568 1.997306,0.838766 2.023319,1.930201 0.0258,1.090988 -0.83832,1.99709 -1.929085,2.023336 -1.091653,0.02557 -1.998207,-0.83833 -2.024219,-1.929767" />
    <path
       inkscape:connector-curvature="0"
       id="path32"
       style="fill:#231f20;fill-opacity:1;fill-rule:evenodd;stroke:none;stroke-width:0.03527778"
       d="m 86.260751,80.696887 c -0.02602,-1.091436 0.837763,-1.997653 1.9292,-2.02367 1.091652,-0.02557 1.997535,0.838102 2.023879,1.929649 0.02569,1.091326 -0.838539,1.997758 -1.929531,2.023556 -1.091436,0.02602 -1.997534,-0.838102 -2.023548,-1.929535" />
    <path
       inkscape:connector-curvature="0"
       id="path34"
       style="fill:#231f20;fill-opacity:1;fill-rule:evenodd;stroke:none;stroke-width:0.03527778"
       d="m 91.769065,74.703755 c -0.02601,-1.091433 0.837773,-1.99765 1.929199,-2.023666 1.091768,-0.0259 1.997761,0.838549 2.024105,1.930098 0.02535,1.091206 -0.838765,1.997308 -1.930087,2.022991 -1.091436,0.02601 -1.997981,-0.837881 -2.023217,-1.929423" />
    <path
       inkscape:connector-curvature="0"
       id="path36"
       style="fill:#231f20;fill-opacity:1;fill-rule:evenodd;stroke:none;stroke-width:0.03527778"
       d="m 101.87969,90.00281 c -0.0259,-1.091769 0.83789,-1.997984 1.92954,-2.023553 1.09144,-0.02602 1.99765,0.837768 2.02322,1.929421 0.026,1.091434 -0.83811,1.997534 -1.92976,2.023105 -1.09109,0.02613 -1.99765,-0.837768 -2.023,-1.928973" />
    <path
       inkscape:connector-curvature="0"
       id="path38"
       style="fill:#231f20;fill-opacity:1;fill-rule:evenodd;stroke:none;stroke-width:0.03527778"
       d="m 101.91425,73.683604 c -0.0261,-1.091104 0.83844,-1.997422 1.92909,-2.023336 1.09232,-0.02534 1.9982,0.838333 2.02356,1.929538 0.0263,1.091547 -0.83778,1.99765 -1.9292,2.023669 -1.09133,0.02568 -1.99743,-0.838438 -2.02345,-1.929871" />
    <path
       inkscape:connector-curvature="0"
       id="path40"
       style="fill:#231f20;fill-opacity:1;fill-rule:evenodd;stroke:none;stroke-width:0.03527778"
       d="m 99.277227,81.584933 c -0.02602,-1.091438 0.838213,-1.997873 1.929203,-2.02367 1.09176,-0.0259 1.9982,0.838333 2.02377,1.929984 0.0263,1.091548 -0.8381,1.997537 -1.92943,2.02322 -1.09143,0.02601 -1.99753,-0.8381 -2.023543,-1.929534" />
    <path
       inkscape:connector-curvature="0"
       id="path42"
       style="fill:#231f20;fill-opacity:1;fill-rule:evenodd;stroke:none;stroke-width:0.03527778"
       d="m 106.65534,82.823179 c -0.026,-1.091437 0.83843,-1.997422 1.92953,-2.023556 1.09143,-0.02602 1.99783,0.838206 2.02345,1.929502 0.0262,1.091482 -0.83797,1.997582 -1.92943,2.023587 -1.09177,0.0259 -1.99754,-0.8381 -2.02355,-1.929533" />
    <path
       inkscape:connector-curvature="0"
       id="path44"
       style="fill:#231f20;fill-opacity:1;fill-rule:evenodd;stroke:none;stroke-width:0.03527778"
       d="m 95.783087,63.205291 -1.094371,-2.327988 0.18118,-0.08547 1.094257,2.328321 -0.181066,0.08513" />
    <path
       inkscape:connector-curvature="0"
       id="path46"
       style="fill:#231f20;fill-opacity:1;fill-rule:evenodd;stroke:none;stroke-width:0.03527778"
       d="m 93.939425,60.966035 c -0.167521,-0.357087 -0.01457,-0.782746 0.343111,-0.950815 0.356759,-0.167636 0.782635,-0.01423 0.950275,0.342511 0.167861,0.357204 0.01457,0.782747 -0.342353,0.951073 -0.357537,0.167745 -0.782637,0.01424 -0.95094,-0.342731" />
    <path
       inkscape:connector-curvature="0"
       id="path48"
       style="fill:#231f20;fill-opacity:1;fill-rule:evenodd;stroke:none;stroke-width:0.03527778"
       d="m 99.197279,62.982828 0.982711,-2.377195 -0.185157,-0.07669 -0.982708,2.377195 0.185157,0.07668" />
    <path
       inkscape:connector-curvature="0"
       id="path50"
       style="fill:#231f20;fill-opacity:1;fill-rule:evenodd;stroke:none;stroke-width:0.03527778"
       d="m 100.93233,60.658948 c 0.15068,-0.364888 -0.0227,-0.782935 -0.38759,-0.933657 -0.36455,-0.1506 -0.782597,0.02283 -0.932877,0.387485 -0.151062,0.36476 0.0225,0.782484 0.38704,0.933094 0.364427,0.150932 0.782587,-0.02283 0.933427,-0.386922" />
  </g>
</svg>
