
<svg xmlns="http://www.w3.org/2000/svg" version="1.1" xmlns:xlink="http://www.w3.org/1999/xlink" preserveAspectRatio="none" x="0px" y="0px" width="857px" height="601px" viewBox="0 0 857 601">
<defs>
<g id="Duplicate_Items_Folder_Symbol_4_copy_12_0_Layer0_0_FILL">
<path fill="#444444" stroke="none" d="
M 151.25 -75.8
Q 151.1052734375 -75.9482421875 150.9 -75.95
L 0 -75.95
Q -0.2052734375 -75.9482421875 -0.35 -75.8 -0.4982421875 -75.6552734375 -0.5 -75.45
L -0.5 75.45
Q -0.4982421875 75.6552734375 -0.35 75.8 -0.2052734375 75.9482421875 0 75.95
L 150.9 75.95
Q 151.1052734375 75.9482421875 151.25 75.8 151.3982421875 75.6552734375 151.4 75.45
L 151.4 -75.45
Q 151.3982421875 -75.6552734375 151.25 -75.8
M 0.5 -74.95
L 150.4 -74.95 150.4 74.95 0.5 74.95 0.5 -74.95 Z"/>

<path fill="#F8E8CE" stroke="none" d="
M 150.4 -74.95
L 0.5 -74.95 0.5 74.95 150.4 74.95 150.4 -74.95
M 149.65 -74.2
L 149.85 -74.4 149.85 74.2 1.5 74.2 1.25 74.2 1.25 -74.4 149.65 -74.4 149.65 -74.2 Z"/>

<path fill="#CBF59E" stroke="none" d="
M 149.65 -74.2
L 149.65 -74.4 1.25 -74.4 1.25 74.2 1.5 74.2 8 67.75 8 -67.65 143.2 -67.65 149.65 -74.2 Z"/>

<path fill="#7D9862" stroke="none" d="
M 143.2 -67.65
L 143.1 -67.55 143.1 67.45 8.35 67.45 8 67.75 1.5 74.2 149.85 74.2 149.85 -74.4 149.65 -74.2 143.2 -67.65 Z"/>

<path fill="#9ABA78" stroke="none" d="
M 143.1 -67.55
L 143.2 -67.65 8 -67.65 8 67.75 8.35 67.45 143.1 67.45 143.1 -67.55 Z"/>
</g>

<g id="Symbol_3_0_Layer0_0_FILL">
<path fill="#FFFFFF" stroke="none" d="
M 47.6 -81.25
L 0 -33.7 0 33.6 47.6 81.2 114.85 81.2 162.45 33.6 162.45 -33.7 114.85 -81.25 47.6 -81.25
M 8.75 -30.55
L 51.25 -73.05 111.4 -73.05 153.9 -30.55 153.9 29.6 111.4 72.1 51.25 72.1 8.75 29.6 8.75 -30.55 Z"/>

<path fill="#E8391C" stroke="none" d="
M 51.25 -73.05
L 8.75 -30.55 8.75 29.6 51.25 72.1 111.4 72.1 153.9 29.6 153.9 -30.55 111.4 -73.05 51.25 -73.05
M 12.3 -29.1
L 52.75 -69.5 109.9 -69.5 150.35 -29.1 150.35 28.1 109.9 68.55 52.75 68.55 12.3 28.1 12.3 -29.1
M 52.75 -69.5
L 12.3 -29.1 12.3 28.1 52.75 68.55 109.9 68.55 150.35 28.1 150.35 -29.1 109.9 -69.5 52.75 -69.5
M 33.8 -18.55
Q 37.4 -18.55 40.3 -17.2 43.35 -15.8 45.5 -14.05
L 42.65 -7.7 41.45 -8.75
Q 40.5 -9.45 39.3 -10.1 38.15 -10.7 36.6 -11.2 35.1 -11.65 33.6 -11.65 30.9 -11.65 29.55 -10.45 28.25 -9.2 28.25 -7.1 28.25 -5.85 28.75 -5.05 29.35 -4.15 30.2 -3.6 31.2 -2.95 32.6 -2.45
L 35.9 -1.4
Q 38.6 -0.5 40.4 0.3 42.25 1.1 43.8 2.6 45.2 4 45.95 5.85 46.7 7.75 46.7 10.55 46.7 13.75 45.7 16.05 44.65 18.4 42.95 19.8 41.35 21.15 38.95 21.85 36.8 22.5 34.25 22.5 30.5 22.5 26.8 21.15 23.15 19.85 20.15 17.3
L 23.05 10.55
Q 23.65 11.15 24.6 11.85 25.55 12.6 27.2 13.5 28.85 14.4 30.55 14.9 32.25 15.45 34.35 15.45 39.75 15.45 39.75 11.35 39.75 10 39.15 9.1 38.5 8.25 37.4 7.5 36.15 6.8 34.65 6.3
L 31.05 5.05
Q 28.8 4.3 26.85 3.3 25.05 2.35 23.9 1.1 22.7 -0.15 22.1 -1.85 21.55 -3.65 21.55 -5.85 21.55 -9.05 22.5 -11.3 23.4 -13.65 25.1 -15.3 26.75 -16.85 29 -17.7 31.3 -18.55 33.8 -18.55
M 77.7 -18.25
L 77.7 -11.4 66.95 -11.4 66.95 22.05 60.45 22.05 60.45 -11.4 49.75 -11.4 49.75 -18.25 77.7 -18.25
M 84.15 -12.35
Q 86.35 -15.2 89.4 -16.85 92.5 -18.55 95.95 -18.55 99.6 -18.55 102.6 -16.75 105.6 -14.95 107.75 -12.05 109.85 -9.2 111.05 -5.45 112.25 -1.75 112.25 2 112.25 5.85 111 9.7 109.85 13.3 107.6 16.2 105.4 19 102.4 20.65 99.35 22.35 95.8 22.35 92.15 22.35 89.1 20.6 86.2 18.9 83.95 16 81.85 13.25 80.6 9.45 79.45 5.7 79.45 1.9 79.45 -2.2 80.7 -5.8 82 -9.5 84.15 -12.35
M 132.65 -18.25
Q 134.95 -18.25 136.95 -17.1 139 -15.85 140.35 -14 141.65 -12.25 142.55 -9.7 143.35 -7.35 143.35 -4.85 143.35 -2.3 142.6 0.1 141.9 2.5 140.5 4.4 139.05 6.3 137.15 7.4 135.15 8.55 132.9 8.55
L 124.95 8.55 124.95 22.05 118.45 22.05 118.45 -18.25 132.65 -18.25
M 135.55 -0.1
Q 136.75 -1.8 136.75 -4.85 136.75 -6.3 136.35 -7.6 135.95 -8.95 135.35 -9.65 134.8 -10.45 133.9 -10.95 133.1 -11.4 132.25 -11.4
L 124.95 -11.4 124.95 1.7 132.55 1.7
Q 134.35 1.7 135.55 -0.1
M 99.95 -10.45
Q 98.2 -11.55 95.85 -11.55 93.55 -11.55 91.65 -10.4 89.8 -9.2 88.55 -7.3 87.4 -5.5 86.7 -3 86.05 -0.4 86.05 1.9 86.05 4.45 86.75 6.95 87.3 9.3 88.65 11.25 89.9 13.1 91.7 14.3 93.55 15.4 95.85 15.4 98.35 15.4 100.05 14.25 101.9 13.1 103.1 11.15 104.4 9.15 105 6.8 105.65 4.5 105.65 1.9 105.65 -0.6 104.95 -3.15 104.3 -5.5 103.05 -7.45 101.8 -9.3 99.95 -10.45 Z"/>

<path fill="#F6F6F6" stroke="none" d="
M 136.95 -17.1
Q 134.95 -18.25 132.65 -18.25
L 118.45 -18.25 118.45 22.05 124.95 22.05 124.95 8.55 132.9 8.55
Q 135.15 8.55 137.15 7.4 139.05 6.3 140.5 4.4 141.9 2.5 142.6 0.1 143.35 -2.3 143.35 -4.85 143.35 -7.35 142.55 -9.7 141.65 -12.25 140.35 -14 139 -15.85 136.95 -17.1
M 136.75 -4.85
Q 136.75 -1.8 135.55 -0.1 134.35 1.7 132.55 1.7
L 124.95 1.7 124.95 -11.4 132.25 -11.4
Q 133.1 -11.4 133.9 -10.95 134.8 -10.45 135.35 -9.65 135.95 -8.95 136.35 -7.6 136.75 -6.3 136.75 -4.85
M 89.4 -16.85
Q 86.35 -15.2 84.15 -12.35 82 -9.5 80.7 -5.8 79.45 -2.2 79.45 1.9 79.45 5.7 80.6 9.45 81.85 13.25 83.95 16 86.2 18.9 89.1 20.6 92.15 22.35 95.8 22.35 99.35 22.35 102.4 20.65 105.4 19 107.6 16.2 109.85 13.3 111 9.7 112.25 5.85 112.25 2 112.25 -1.75 111.05 -5.45 109.85 -9.2 107.75 -12.05 105.6 -14.95 102.6 -16.75 99.6 -18.55 95.95 -18.55 92.5 -18.55 89.4 -16.85
M 95.85 -11.55
Q 98.2 -11.55 99.95 -10.45 101.8 -9.3 103.05 -7.45 104.3 -5.5 104.95 -3.15 105.65 -0.6 105.65 1.9 105.65 4.5 105 6.8 104.4 9.15 103.1 11.15 101.9 13.1 100.05 14.25 98.35 15.4 95.85 15.4 93.55 15.4 91.7 14.3 89.9 13.1 88.65 11.25 87.3 9.3 86.75 6.95 86.05 4.45 86.05 1.9 86.05 -0.4 86.7 -3 87.4 -5.5 88.55 -7.3 89.8 -9.2 91.65 -10.4 93.55 -11.55 95.85 -11.55
M 77.7 -11.4
L 77.7 -18.25 49.75 -18.25 49.75 -11.4 60.45 -11.4 60.45 22.05 66.95 22.05 66.95 -11.4 77.7 -11.4
M 40.3 -17.2
Q 37.4 -18.55 33.8 -18.55 31.3 -18.55 29 -17.7 26.75 -16.85 25.1 -15.3 23.4 -13.65 22.5 -11.3 21.55 -9.05 21.55 -5.85 21.55 -3.65 22.1 -1.85 22.7 -0.15 23.9 1.1 25.05 2.35 26.85 3.3 28.8 4.3 31.05 5.05
L 34.65 6.3
Q 36.15 6.8 37.4 7.5 38.5 8.25 39.15 9.1 39.75 10 39.75 11.35 39.75 15.45 34.35 15.45 32.25 15.45 30.55 14.9 28.85 14.4 27.2 13.5 25.55 12.6 24.6 11.85 23.65 11.15 23.05 10.55
L 20.15 17.3
Q 23.15 19.85 26.8 21.15 30.5 22.5 34.25 22.5 36.8 22.5 38.95 21.85 41.35 21.15 42.95 19.8 44.65 18.4 45.7 16.05 46.7 13.75 46.7 10.55 46.7 7.75 45.95 5.85 45.2 4 43.8 2.6 42.25 1.1 40.4 0.3 38.6 -0.5 35.9 -1.4
L 32.6 -2.45
Q 31.2 -2.95 30.2 -3.6 29.35 -4.15 28.75 -5.05 28.25 -5.85 28.25 -7.1 28.25 -9.2 29.55 -10.45 30.9 -11.65 33.6 -11.65 35.1 -11.65 36.6 -11.2 38.15 -10.7 39.3 -10.1 40.5 -9.45 41.45 -8.75
L 42.65 -7.7 45.5 -14.05
Q 43.35 -15.8 40.3 -17.2 Z"/>
</g>

<g id="Symbol_5_0_Layer0_0_FILL">
<path fill="#FFFFFF" stroke="none" d="
M 80.75 -80.8
Q 64.35 -80.8 49.35 -74.45 34.9 -68.3 23.7 -57.15 12.5 -45.95 6.35 -31.45 0 -16.45 0 -0.05 0 16.35 6.35 31.35 12.5 45.85 23.7 57.05 34.85 68.25 49.35 74.4 64.35 80.75 80.75 80.75 97.15 80.75 112.15 74.4 126.65 68.25 137.85 57.05 149.05 45.85 155.2 31.35 161.55 16.35 161.55 -0.05 161.55 -16.45 155.2 -31.45 149.05 -45.95 137.85 -57.15 126.65 -68.3 112.15 -74.45 97.15 -80.8 80.75 -80.8
M 52.8 -67
Q 66.2 -72.65 80.85 -72.65 95.55 -72.65 108.95 -67 121.9 -61.5 131.85 -51.5 141.85 -41.55 147.35 -28.6 153 -15.2 153 -0.5 153 14.2 147.35 27.6 141.85 40.55 131.85 50.5 121.9 60.5 108.95 66 95.55 71.65 80.85 71.65 66.2 71.65 52.8 66 39.85 60.5 29.9 50.5 19.9 40.55 14.4 27.6 8.75 14.2 8.75 -0.5 8.75 -15.2 14.4 -28.6 19.9 -41.55 29.9 -51.5 39.85 -61.5 52.8 -67
M 23 -13.5
Q 21.55 -13.5 20.5 -12.45 19.45 -11.4 19.45 -9.9
L 19.45 8.95
Q 19.45 10.4 20.5 11.45 21.55 12.5 23 12.5
L 138.75 12.5
Q 140.2 12.5 141.25 11.45 142.3 10.4 142.3 8.95
L 142.3 -9.9
Q 142.3 -11.4 141.25 -12.45 140.2 -13.5 138.75 -13.5
L 23 -13.5 Z"/>

<path fill="#E8391C" stroke="none" d="
M 80.85 -72.65
Q 66.2 -72.65 52.8 -67 39.85 -61.5 29.9 -51.5 19.9 -41.55 14.4 -28.6 8.75 -15.2 8.75 -0.5 8.75 14.2 14.4 27.6 19.9 40.55 29.9 50.5 39.85 60.5 52.8 66 66.2 71.65 80.85 71.65 95.55 71.65 108.95 66 121.9 60.5 131.85 50.5 141.85 40.55 147.35 27.6 153 14.2 153 -0.5 153 -15.2 147.35 -28.6 141.85 -41.55 131.85 -51.5 121.9 -61.5 108.95 -67 95.55 -72.65 80.85 -72.65
M 12.4 -0.5
Q 12.4 -28.85 32.45 -48.9 52.5 -68.95 80.85 -68.95 109.25 -68.95 129.3 -48.9 149.35 -28.85 149.35 -0.5 149.35 27.9 129.3 47.95 109.25 68 80.85 68 52.5 68 32.45 47.95 12.4 27.9 12.4 -0.5
M 32.45 -48.9
Q 12.4 -28.85 12.4 -0.5 12.4 27.9 32.45 47.95 52.5 68 80.85 68 109.25 68 129.3 47.95 149.35 27.9 149.35 -0.5 149.35 -28.85 129.3 -48.9 109.25 -68.95 80.85 -68.95 52.5 -68.95 32.45 -48.9
M 20.5 -12.45
Q 21.55 -13.5 23 -13.5
L 138.75 -13.5
Q 140.2 -13.5 141.25 -12.45 142.3 -11.4 142.3 -9.9
L 142.3 8.95
Q 142.3 10.4 141.25 11.45 140.2 12.5 138.75 12.5
L 23 12.5
Q 21.55 12.5 20.5 11.45 19.45 10.4 19.45 8.95
L 19.45 -9.9
Q 19.45 -11.4 20.5 -12.45 Z"/>
</g>

<g id="Symbol_6_0_Layer0_0_FILL">
<path fill="#FFFFFF" stroke="none" d="
M 80.75 -80.8
Q 64.35 -80.8 49.35 -74.45 34.85 -68.3 23.65 -57.15 12.5 -45.95 6.35 -31.45 0 -16.45 0 -0.05 0 16.35 6.35 31.35 12.5 45.85 23.65 57.05 34.85 68.25 49.35 74.4 64.35 80.75 80.75 80.75 97.15 80.75 112.15 74.4 126.65 68.25 137.85 57.05 149.05 45.85 155.2 31.35 161.55 16.35 161.55 -0.05 161.55 -16.45 155.2 -31.45 149.05 -45.95 137.85 -57.15 126.65 -68.3 112.15 -74.45 97.15 -80.8 80.75 -80.8
M 52.75 -67
Q 66.15 -72.65 80.85 -72.65 95.55 -72.65 108.95 -67 121.9 -61.5 131.85 -51.5 141.85 -41.55 147.35 -28.6 153 -15.2 153 -0.5 153 14.2 147.35 27.6 141.85 40.55 131.85 50.5 121.9 60.5 108.95 66 95.55 71.65 80.85 71.65 66.15 71.65 52.75 66 39.8 60.5 29.85 50.5 19.85 40.55 14.35 27.6 8.7 14.2 8.7 -0.5 8.7 -15.2 14.35 -28.6 19.85 -41.55 29.85 -51.5 39.8 -61.5 52.75 -67 Z"/>

<path fill="#E8391C" stroke="none" d="
M 80.85 -72.65
Q 66.15 -72.65 52.75 -67 39.8 -61.5 29.85 -51.5 19.85 -41.55 14.35 -28.6 8.7 -15.2 8.7 -0.5 8.7 14.2 14.35 27.6 19.85 40.55 29.85 50.5 39.8 60.5 52.75 66 66.15 71.65 80.85 71.65 95.55 71.65 108.95 66 121.9 60.5 131.85 50.5 141.85 40.55 147.35 27.6 153 14.2 153 -0.5 153 -15.2 147.35 -28.6 141.85 -41.55 131.85 -51.5 121.9 -61.5 108.95 -67 95.55 -72.65 80.85 -72.65
M 20.55 -0.5
Q 20.55 -25.45 38.2 -43.15 55.9 -60.8 80.85 -60.8 105.85 -60.8 123.55 -43.15 141.2 -25.5 141.2 -0.5 141.2 24.5 123.55 42.2 105.85 59.85 80.85 59.85 55.85 59.85 38.2 42.2 20.55 24.5 20.55 -0.5 Z"/>

<path fill="#F6F6F6" stroke="none" d="
M 38.2 -43.15
Q 20.55 -25.45 20.55 -0.5 20.55 24.5 38.2 42.2 55.85 59.85 80.85 59.85 105.85 59.85 123.55 42.2 141.2 24.5 141.2 -0.5 141.2 -25.5 123.55 -43.15 105.85 -60.8 80.85 -60.8 55.9 -60.8 38.2 -43.15
M 78.4 -31.25
Q 75 -31.25 72.55 -33.65 70.15 -36.05 70.15 -39.45 70.15 -42.85 72.55 -45.3 75 -47.7 78.4 -47.7 81.8 -47.7 84.2 -45.3 86.6 -42.85 86.6 -39.45 86.6 -36.05 84.2 -33.65 81.8 -31.25 78.4 -31.25
M 52.55 -4.45
L 52.95 -6.6 64.55 -9.6 68.25 -15.35
Q 72.35 -21.55 74.4 -23.75 76.6 -26.15 81.7 -28.4 86.1 -30.35 87.8 -30.35 88.9 -30.35 97.3 -22.5 101.5 -18.55 105.5 -14.65
L 105.3 -5.15
Q 104.7 4.3 102.95 4.3
L 97.4 4.3 98.15 -9.85 92.6 -16.7 91.6 5.8 107.5 34.6
Q 106.95 36.1 105.95 37.65 103.9 40.65 101.7 40.65 99.5 40.65 91.5 25.9
L 84 11.1 72.15 19.7 69.8 30.5
Q 67 41.35 64.8 41.65 62.6 42 59.35 42.15
L 56.5 42.2 63.05 15.4 77.45 1.25 76.2 -10.35 68.1 -1.55
Q 65.45 -0.85 62.4 -0.4 56.35 0.5 54.45 -0.75 52.55 -2.05 52.55 -4.45 Z"/>

<path fill="#1E1E1E" stroke="none" d="
M 52.95 -6.6
L 52.55 -4.45
Q 52.55 -2.05 54.45 -0.75 56.35 0.5 62.4 -0.4 65.45 -0.85 68.1 -1.55
L 76.2 -10.35 77.45 1.25 63.05 15.4 56.5 42.2 59.35 42.15
Q 62.6 42 64.8 41.65 67 41.35 69.8 30.5
L 72.15 19.7 84 11.1 91.5 25.9
Q 99.5 40.65 101.7 40.65 103.9 40.65 105.95 37.65 106.95 36.1 107.5 34.6
L 91.6 5.8 92.6 -16.7 98.15 -9.85 97.4 4.3 102.95 4.3
Q 104.7 4.3 105.3 -5.15
L 105.5 -14.65
Q 101.5 -18.55 97.3 -22.5 88.9 -30.35 87.8 -30.35 86.1 -30.35 81.7 -28.4 76.6 -26.15 74.4 -23.75 72.35 -21.55 68.25 -15.35
L 64.55 -9.6 52.95 -6.6
M 72.55 -33.65
Q 75 -31.25 78.4 -31.25 81.8 -31.25 84.2 -33.65 86.6 -36.05 86.6 -39.45 86.6 -42.85 84.2 -45.3 81.8 -47.7 78.4 -47.7 75 -47.7 72.55 -45.3 70.15 -42.85 70.15 -39.45 70.15 -36.05 72.55 -33.65 Z"/>
</g>

<g id="Symbol_8_0_Layer0_0_FILL">
<path fill="#FFFFFF" stroke="none" d="
M 39.1 -39.1
Q 31.15 -39.1 23.9 -36.05 16.9 -33.05 11.5 -27.65 6.05 -22.2 3.1 -15.2 0 -7.95 0 0 0 7.95 3.1 15.2 6.05 22.2 11.5 27.6 16.9 33.05 23.9 36 31.15 39.1 39.1 39.1 47.05 39.1 54.3 36 61.3 33.05 66.75 27.6 72.15 22.2 75.15 15.2 78.2 7.95 78.2 0 78.2 -7.95 75.15 -15.2 72.15 -22.2 66.75 -27.65 61.3 -33.05 54.3 -36.05 47.05 -39.1 39.1 -39.1
M 25.55 -32.4
Q 32.05 -35.15 39.15 -35.15 46.25 -35.15 52.75 -32.4 59 -29.75 63.85 -24.9 68.7 -20.1 71.35 -13.8 74.05 -7.35 74.05 -0.2 74.05 6.9 71.35 13.35 68.7 19.65 63.85 24.5 59 29.3 52.75 31.95 46.25 34.7 39.15 34.7 32.05 34.7 25.55 31.95 19.3 29.3 14.5 24.5 9.65 19.65 6.95 13.35 4.25 6.9 4.25 -0.2 4.25 -7.35 6.95 -13.8 9.65 -20.1 14.5 -24.9 19.3 -29.75 25.55 -32.4 Z"/>

<path fill="#E8391C" stroke="none" d="
M 39.15 -35.15
Q 32.05 -35.15 25.55 -32.4 19.3 -29.75 14.5 -24.9 9.65 -20.1 6.95 -13.8 4.25 -7.35 4.25 -0.2 4.25 6.9 6.95 13.35 9.65 19.65 14.5 24.5 19.3 29.3 25.55 31.95 32.05 34.7 39.15 34.7 46.25 34.7 52.75 31.95 59 29.3 63.85 24.5 68.7 19.65 71.35 13.35 74.05 6.9 74.05 -0.2 74.05 -7.35 71.35 -13.8 68.7 -20.1 63.85 -24.9 59 -29.75 52.75 -32.4 46.25 -35.15 39.15 -35.15
M 9.85 -0.2
Q 9.85 -12.35 18.45 -20.95 27 -29.55 39.15 -29.55 49.7 -29.55 57.6 -23 58.75 -22.05 59.85 -20.95 60.9 -19.9 61.85 -18.8 68.45 -10.9 68.45 -0.2 68.45 11.9 59.85 20.5 51.3 29.1 39.15 29.1 28.5 29.1 20.6 22.45 19.5 21.55 18.45 20.5 17.35 19.4 16.35 18.25 9.85 10.35 9.85 -0.2 Z"/>

<path fill="#F6F6F6" stroke="none" d="
M 18.45 -20.95
Q 9.85 -12.35 9.85 -0.2 9.85 10.35 16.35 18.25 17.35 19.4 18.45 20.5 19.5 21.55 20.6 22.45 28.5 29.1 39.15 29.1 51.3 29.1 59.85 20.5 68.45 11.9 68.45 -0.2 68.45 -10.9 61.85 -18.8 60.9 -19.9 59.85 -20.95 58.75 -22.05 57.6 -23 49.7 -29.55 39.15 -29.55 27 -29.55 18.45 -20.95
M 14.65 -5.65
Q 14.4 -5.8 14.4 -6.1 14.4 -6.4 14.65 -6.55
L 31.65 -14.6
Q 31.9 -14.7 32.15 -14.55 32.4 -14.4 32.35 -14.1
L 31.95 -10.45 50.6 -10.45
Q 51.95 -10.45 53.15 -10.1 55.15 -9.5 56.75 -7.9 59.3 -5.35 59.3 -1.75
L 59.3 19.8 50.6 19.8 50.6 1.8
Q 50.6 0.35 49.55 -0.7 48.5 -1.75 47 -1.75
L 31.95 -1.75 32.35 1.85
Q 32.4 2.15 32.15 2.35 31.9 2.5 31.65 2.4
L 14.65 -5.65 Z"/>

<path fill="#1E1E1E" stroke="none" d="
M 14.4 -6.1
Q 14.4 -5.8 14.65 -5.65
L 31.65 2.4
Q 31.9 2.5 32.15 2.35 32.4 2.15 32.35 1.85
L 31.95 -1.75 47 -1.75
Q 48.5 -1.75 49.55 -0.7 50.6 0.35 50.6 1.8
L 50.6 19.8 59.3 19.8 59.3 -1.75
Q 59.3 -5.35 56.75 -7.9 55.15 -9.5 53.15 -10.1 51.95 -10.45 50.6 -10.45
L 31.95 -10.45 32.35 -14.1
Q 32.4 -14.4 32.15 -14.55 31.9 -14.7 31.65 -14.6
L 14.65 -6.55
Q 14.4 -6.4 14.4 -6.1 Z"/>
</g>

<g id="Symbol_9_0_Layer0_0_FILL">
<path fill="#FFFFFF" stroke="none" d="
M 39.1 -39.1
Q 31.15 -39.1 23.9 -36.05 16.9 -33.05 11.45 -27.65 6.05 -22.2 3.05 -15.2 0 -7.95 0 0 0 7.95 3.05 15.2 6.05 22.2 11.45 27.6 16.9 33.05 23.9 36 31.15 39.1 39.1 39.1 47.05 39.1 54.3 36 61.3 33.05 66.75 27.6 72.15 22.2 75.15 15.2 78.2 7.95 78.2 0 78.2 -7.95 75.15 -15.2 72.15 -22.2 66.75 -27.65 61.3 -33.05 54.3 -36.05 47.05 -39.1 39.1 -39.1
M 25.55 -32.4
Q 32.05 -35.15 39.15 -35.15 46.25 -35.15 52.75 -32.4 59 -29.75 63.85 -24.9 68.65 -20.1 71.35 -13.8 74.05 -7.35 74.05 -0.2 74.05 6.9 71.35 13.35 68.65 19.65 63.85 24.5 59 29.3 52.75 31.95 46.25 34.7 39.15 34.7 32.05 34.7 25.55 31.95 19.3 29.3 14.5 24.5 9.65 19.65 6.95 13.35 4.25 6.9 4.25 -0.2 4.25 -7.35 6.95 -13.8 9.65 -20.1 14.5 -24.9 19.3 -29.75 25.55 -32.4 Z"/>

<path fill="#E8391C" stroke="none" d="
M 39.15 -35.15
Q 32.05 -35.15 25.55 -32.4 19.3 -29.75 14.5 -24.9 9.65 -20.1 6.95 -13.8 4.25 -7.35 4.25 -0.2 4.25 6.9 6.95 13.35 9.65 19.65 14.5 24.5 19.3 29.3 25.55 31.95 32.05 34.7 39.15 34.7 46.25 34.7 52.75 31.95 59 29.3 63.85 24.5 68.65 19.65 71.35 13.35 74.05 6.9 74.05 -0.2 74.05 -7.35 71.35 -13.8 68.65 -20.1 63.85 -24.9 59 -29.75 52.75 -32.4 46.25 -35.15 39.15 -35.15
M 9.85 -0.2
Q 9.85 -12.35 18.45 -20.95 27 -29.55 39.15 -29.55 49.7 -29.55 57.6 -23 58.75 -22.05 59.85 -20.95 60.9 -19.9 61.85 -18.8 68.45 -10.9 68.45 -0.2 68.45 11.9 59.85 20.5 51.3 29.1 39.15 29.1 28.5 29.1 20.6 22.45 19.5 21.55 18.45 20.5 17.35 19.4 16.35 18.25 9.85 10.35 9.85 -0.2 Z"/>

<path fill="#F6F6F6" stroke="none" d="
M 18.45 -20.95
Q 9.85 -12.35 9.85 -0.2 9.85 10.35 16.35 18.25 17.35 19.4 18.45 20.5 19.5 21.55 20.6 22.45 28.5 29.1 39.15 29.1 51.3 29.1 59.85 20.5 68.45 11.9 68.45 -0.2 68.45 -10.9 61.85 -18.8 60.9 -19.9 59.85 -20.95 58.75 -22.05 57.6 -23 49.7 -29.55 39.15 -29.55 27 -29.55 18.45 -20.95
M 32.45 -1.75
Q 31 -1.75 29.9 -0.7 28.9 0.35 28.9 1.8
L 28.9 19.8 20.2 19.8 20.2 -1.75
Q 20.2 -5.35 22.75 -7.9 25.3 -10.45 28.9 -10.45
L 47.55 -10.45 47.15 -14.1
Q 47.15 -14.4 47.35 -14.55 47.6 -14.7 47.85 -14.6
L 64.85 -6.55
Q 65.1 -6.4 65.1 -6.1 65.1 -5.8 64.85 -5.65
L 47.85 2.4
Q 47.6 2.5 47.35 2.35 47.15 2.15 47.15 1.85
L 47.55 -1.75 32.45 -1.75 Z"/>

<path fill="#1E1E1E" stroke="none" d="
M 29.9 -0.7
Q 31 -1.75 32.45 -1.75
L 47.55 -1.75 47.15 1.85
Q 47.15 2.15 47.35 2.35 47.6 2.5 47.85 2.4
L 64.85 -5.65
Q 65.1 -5.8 65.1 -6.1 65.1 -6.4 64.85 -6.55
L 47.85 -14.6
Q 47.6 -14.7 47.35 -14.55 47.15 -14.4 47.15 -14.1
L 47.55 -10.45 28.9 -10.45
Q 25.3 -10.45 22.75 -7.9 20.2 -5.35 20.2 -1.75
L 20.2 19.8 28.9 19.8 28.9 1.8
Q 28.9 0.35 29.9 -0.7 Z"/>
</g>

<g id="Symbol_10_0_Layer0_0_FILL">
<path fill="#FFFFFF" stroke="none" d="
M 39.1 -39.1
Q 31.15 -39.1 23.9 -36.05 16.9 -33.05 11.5 -27.65 6.05 -22.2 3.1 -15.2 0 -7.9 0 0 0 7.95 3.1 15.2 6.05 22.25 11.5 27.65 16.85 33.1 23.9 36.05 31.15 39.15 39.1 39.15 47.05 39.15 54.3 36.05 61.3 33.1 66.75 27.65 72.15 22.25 75.15 15.2 78.2 7.95 78.2 0 78.2 -7.9 75.15 -15.2 72.15 -22.2 66.75 -27.65 61.3 -33.05 54.3 -36.05 47.05 -39.1 39.1 -39.1
M 25.55 -32.4
Q 32.05 -35.15 39.15 -35.15 46.25 -35.15 52.75 -32.4 59 -29.75 63.85 -24.9 68.7 -20.05 71.35 -13.8 74.05 -7.3 74.05 -0.2 74.05 6.9 71.35 13.4 68.7 19.65 63.85 24.5 59 29.35 52.75 32 46.25 34.75 39.15 34.75 32.05 34.75 25.55 32 19.3 29.35 14.5 24.5 9.65 19.65 6.95 13.4 4.25 6.9 4.25 -0.2 4.25 -7.3 6.95 -13.8 9.65 -20.05 14.5 -24.9 19.3 -29.75 25.55 -32.4 Z"/>

<path fill="#E8391C" stroke="none" d="
M 39.15 -35.15
Q 32.05 -35.15 25.55 -32.4 19.3 -29.75 14.5 -24.9 9.65 -20.05 6.95 -13.8 4.25 -7.3 4.25 -0.2 4.25 6.9 6.95 13.4 9.65 19.65 14.5 24.5 19.3 29.35 25.55 32 32.05 34.75 39.15 34.75 46.25 34.75 52.75 32 59 29.35 63.85 24.5 68.7 19.65 71.35 13.4 74.05 6.9 74.05 -0.2 74.05 -7.3 71.35 -13.8 68.7 -20.05 63.85 -24.9 59 -29.75 52.75 -32.4 46.25 -35.15 39.15 -35.15
M 9.85 -0.2
Q 9.85 -11.1 16.8 -19.15 17.6 -20.05 18.45 -20.9 19.75 -22.2 21.1 -23.25 28.85 -29.5 39.15 -29.5 51.3 -29.5 59.85 -20.9 68.45 -12.35 68.45 -0.2 68.45 10.15 62.25 17.9 61.15 19.25 59.85 20.5 59 21.4 58.1 22.15 50.05 29.1 39.15 29.1 27 29.1 18.45 20.5 9.85 11.95 9.85 -0.2 Z"/>

<path fill="#F6F6F6" stroke="none" d="
M 16.8 -19.15
Q 9.85 -11.1 9.85 -0.2 9.85 11.95 18.45 20.5 27 29.1 39.15 29.1 50.05 29.1 58.1 22.15 59 21.4 59.85 20.5 61.15 19.25 62.25 17.9 68.45 10.15 68.45 -0.2 68.45 -12.35 59.85 -20.9 51.3 -29.5 39.15 -29.5 28.85 -29.5 21.1 -23.25 19.75 -22.2 18.45 -20.9 17.6 -20.05 16.8 -19.15
M 56 -17.2
Q 57.85 -15.15 58.8 -12.7 59.8 -10.15 59.8 -7.55 59.8 -4.75 58.85 -2.25 57.95 0.25 56.2 2.25 54.5 4.2 52.05 5.45 49.7 6.65 46.7 6.65
L 35 6.65 35 21.7 28.2 21.7 28.2 -21.6 46.35 -21.6
Q 49.35 -21.6 51.75 -20.4 54.2 -19.2 56 -17.2
M 48.55 -15
Q 47.3 -15.6 45.95 -15.6
L 35 -15.6 35 0.6 46.3 0.6
Q 47.75 0.6 48.95 -0.05 50.1 -0.6 51 -1.75 51.9 -2.85 52.35 -4.3 52.85 -5.75 52.85 -7.55 52.85 -9.35 52.3 -10.85 51.75 -12.3 50.75 -13.35 49.75 -14.45 48.55 -15 Z"/>

<path fill="#1E1E1E" stroke="none" d="
M 58.8 -12.7
Q 57.85 -15.15 56 -17.2 54.2 -19.2 51.75 -20.4 49.35 -21.6 46.35 -21.6
L 28.2 -21.6 28.2 21.7 35 21.7 35 6.65 46.7 6.65
Q 49.7 6.65 52.05 5.45 54.5 4.2 56.2 2.25 57.95 0.25 58.85 -2.25 59.8 -4.75 59.8 -7.55 59.8 -10.15 58.8 -12.7
M 45.95 -15.6
Q 47.3 -15.6 48.55 -15 49.75 -14.45 50.75 -13.35 51.75 -12.3 52.3 -10.85 52.85 -9.35 52.85 -7.55 52.85 -5.75 52.35 -4.3 51.9 -2.85 51 -1.75 50.1 -0.6 48.95 -0.05 47.75 0.6 46.3 0.6
L 35 0.6 35 -15.6 45.95 -15.6 Z"/>
</g>

<g id="Symbol_11_0_Layer0_0_FILL">
<path fill="#FFFFFF" stroke="none" d="
M 0 0.05
L 47.4 47.4 94.8 0.05 47.4 -47.35 0 0.05
M 7.6 -0.2
Q 7.6 -1.8 8.7 -2.9
L 44.7 -38.9
Q 45.85 -40.05 47.45 -40.05 49.05 -40.05 50.2 -38.9
L 86.2 -2.9
Q 87.35 -1.8 87.35 -0.2 87.35 1.45 86.2 2.55
L 50.2 38.55
Q 49.05 39.7 47.45 39.7 45.85 39.7 44.7 38.55
L 8.7 2.55
Q 7.6 1.45 7.6 -0.2 Z"/>

<path fill="#F4C327" stroke="none" d="
M 8.7 -2.9
Q 7.6 -1.8 7.6 -0.2 7.6 1.45 8.7 2.55
L 44.7 38.55
Q 45.85 39.7 47.45 39.7 49.05 39.7 50.2 38.55
L 86.2 2.55
Q 87.35 1.45 87.35 -0.2 87.35 -1.8 86.2 -2.9
L 50.2 -38.9
Q 49.05 -40.05 47.45 -40.05 45.85 -40.05 44.7 -38.9
L 8.7 -2.9
M 11.15 -0.2
Q 11.15 -0.8 11.6 -1.2
L 46.45 -36.05
Q 46.85 -36.45 47.45 -36.45 48.05 -36.45 48.5 -36.05
L 83.3 -1.2
Q 83.75 -0.8 83.75 -0.2 83.75 0.4 83.3 0.85
L 48.5 35.7
Q 48.05 36.1 47.45 36.1 46.85 36.1 46.45 35.7
L 11.6 0.85
Q 11.15 0.4 11.15 -0.2
M 11.6 -1.2
Q 11.15 -0.8 11.15 -0.2 11.15 0.4 11.6 0.85
L 46.45 35.7
Q 46.85 36.1 47.45 36.1 48.05 36.1 48.5 35.7
L 83.3 0.85
Q 83.75 0.4 83.75 -0.2 83.75 -0.8 83.3 -1.2
L 48.5 -36.05
Q 48.05 -36.45 47.45 -36.45 46.85 -36.45 46.45 -36.05
L 11.6 -1.2
M 53.1 -16.1
L 61.45 -16.1 61.45 15.7 53.1 15.7 53.1 4 29.6 4 29.6 -4.35 53.1 -4.35 53.1 -16.1 Z"/>

<path fill="#1E1E1E" stroke="none" d="
M 61.45 -16.1
L 53.1 -16.1 53.1 -4.35 29.6 -4.35 29.6 4 53.1 4 53.1 15.7 61.45 15.7 61.45 -16.1 Z"/>
</g>

<g id="Symbol_12_0_Layer0_0_FILL">
<path fill="#FFFFFF" stroke="none" d="
M 40.4 -35.15
Q 38.65 -35.15 37.1 -34.25 35.55 -33.4 34.65 -31.85
L 0.9 25.1
Q 0 26.65 0 28.45 -0.05 30.25 0.85 31.8 1.7 33.25 3.05 34.15 3.2 34.25 3.3 34.3 4.9 35.2 6.7 35.2
L 74.15 35.2
Q 75.05 35.2 75.85 35 76.7 34.75 77.5 34.3 79.05 33.4 79.95 31.8 80.85 30.25 80.8 28.45 80.8 26.65 79.9 25.1
L 46.15 -31.85
Q 45.25 -33.4 43.7 -34.25 42.2 -35.15 40.4 -35.15
M 38.3 -29.95
Q 39 -31.15 40.45 -31.15 41.9 -31.15 42.6 -29.95
L 76.35 27
Q 77.1 28.25 76.35 29.55 76.15 29.95 75.85 30.2 75.2 30.8 74.2 30.8
L 6.7 30.8
Q 5.25 30.8 4.55 29.55 3.8 28.25 4.55 27
L 38.3 -29.95 Z"/>

<path fill="#E8391C" stroke="none" d="
M 40.45 -31.15
Q 39 -31.15 38.3 -29.95
L 4.55 27
Q 3.8 28.25 4.55 29.55 5.25 30.8 6.7 30.8
L 74.2 30.8
Q 75.2 30.8 75.85 30.2 76.15 29.95 76.35 29.55 77.1 28.25 76.35 27
L 42.6 -29.95
Q 41.9 -31.15 40.45 -31.15
M 69.45 25.3
L 11.45 25.3 40.45 -23.7 69.45 25.3 Z"/>

<path fill="#F6F6F6" stroke="none" d="
M 11.45 25.3
L 69.45 25.3 40.45 -23.7 11.45 25.3
M 32.6 -5.85
L 36.85 -5.85 36.85 4 35.05 13.75 35.05 23.6 30.8 23.6 30.8 13.75 32.6 3.95 32.6 -5.85
M 44.05 -5.85
L 48.3 -5.85 48.3 3.95 50.1 13.75 50.1 23.6 45.85 23.6 45.85 13.75 44.05 4 44.05 -5.85 Z"/>

<path fill="#1E1E1E" stroke="none" d="
M 48.3 -5.85
L 44.05 -5.85 44.05 4 45.85 13.75 45.85 23.6 50.1 23.6 50.1 13.75 48.3 3.95 48.3 -5.85
M 36.85 -5.85
L 32.6 -5.85 32.6 3.95 30.8 13.75 30.8 23.6 35.05 23.6 35.05 13.75 36.85 4 36.85 -5.85 Z"/>
</g>

<g id="Symbol_13_0_Layer0_0_FILL">
<path fill="#FFFFFF" stroke="none" d="
M 40.45 -35.15
Q 38.65 -35.15 37.1 -34.3 35.55 -33.45 34.65 -31.9
L 0.95 25.05
Q 0.05 26.6 0 28.4 0 30.2 0.9 31.8 1.8 33.35 3.35 34.25 4.9 35.15 6.7 35.15
L 74.15 35.15
Q 75.95 35.15 77.5 34.25 79.05 33.35 79.95 31.8 80.85 30.2 80.85 28.4 80.85 26.6 79.9 25.05
L 46.2 -31.9
Q 45.3 -33.45 43.75 -34.3 42.2 -35.15 40.45 -35.15
M 40.5 -31.2
Q 41.9 -31.2 42.65 -30
L 76.35 27
Q 77.1 28.25 76.4 29.5 75.65 30.75 74.2 30.75
L 6.75 30.75
Q 5.3 30.75 4.55 29.5 3.85 28.25 4.6 27
L 38.3 -30
Q 39.05 -31.2 40.5 -31.2 Z"/>

<path fill="#E8391C" stroke="none" d="
M 42.65 -30
Q 41.9 -31.2 40.5 -31.2 39.05 -31.2 38.3 -30
L 4.6 27
Q 3.85 28.25 4.55 29.5 5.3 30.75 6.75 30.75
L 74.2 30.75
Q 75.65 30.75 76.4 29.5 77.1 28.25 76.35 27
L 42.65 -30
M 69.5 25.25
L 11.45 25.25 40.5 -23.75 69.5 25.25 Z"/>

<path fill="#F6F6F6" stroke="none" d="
M 11.45 25.25
L 69.5 25.25 40.5 -23.75 11.45 25.25
M 40.5 -9.05
L 45.35 -2.75 45.35 6.1 51.3 6.1 51.3 9.5 45.35 9.5 45.35 21 35.55 21 35.55 9.5 29.65 9.5 29.65 6.1 35.55 6.1 35.55 -2.75 40.5 -9.05 Z"/>

<path fill="#1E1E1E" stroke="none" d="
M 45.35 -2.75
L 40.5 -9.05 35.55 -2.75 35.55 6.1 29.65 6.1 29.65 9.5 35.55 9.5 35.55 21 45.35 21 45.35 9.5 51.3 9.5 51.3 6.1 45.35 6.1 45.35 -2.75 Z"/>
</g>

<g id="Symbol_14_0_Layer0_0_FILL">
<path fill="#FFFFFF" stroke="none" d="
M 39.15 -39.1
Q 31.2 -39.1 23.95 -36.05 16.9 -33.05 11.5 -27.65 6.05 -22.25 3.1 -15.2 0 -7.95 0 0 0 7.95 3.1 15.2 6.05 22.2 11.5 27.65 16.9 33.05 23.95 36.05 31.2 39.1 39.15 39.1 47.05 39.1 54.35 36.05 61.35 33.05 66.8 27.65 72.15 22.2 75.15 15.2 78.25 7.95 78.25 0 78.25 -7.95 75.15 -15.2 72.15 -22.25 66.8 -27.65 61.35 -33.05 54.35 -36.05 47.05 -39.1 39.15 -39.1
M 25.6 -32.4
Q 32.05 -35.15 39.2 -35.15 46.3 -35.15 52.8 -32.4 59.05 -29.75 63.85 -24.9 68.7 -20.1 71.4 -13.85 74.1 -7.35 74.1 -0.25 74.1 6.9 71.4 13.4 68.7 19.65 63.85 24.45 59.05 29.3 52.8 31.95 46.3 34.7 39.2 34.7 32.05 34.7 25.6 31.95 19.3 29.3 14.5 24.45 9.65 19.65 7 13.4 4.25 6.9 4.25 -0.25 4.25 -7.35 7 -13.85 9.65 -20.1 14.5 -24.9 19.3 -29.75 25.6 -32.4
M 49.9 -20.05
Q 47.45 -21.25 44.5 -21.25
L 26.3 -21.25 26.3 22.1 33.15 22.1 33.15 7 44.85 7
Q 47.8 7 50.2 5.85 52.6 4.6 54.35 2.65 56.1 0.6 57 -1.85 57.95 -4.4 57.95 -7.15 57.95 -9.75 56.9 -12.3 56 -14.75 54.15 -16.85 52.4 -18.8 49.9 -20.05
M 46.7 -14.65
Q 47.9 -14.05 48.9 -13 49.9 -11.85 50.45 -10.45 50.95 -9 50.95 -7.15 50.95 -5.35 50.5 -3.9 50.05 -2.5 49.15 -1.35 48.3 -0.25 47.1 0.35 45.9 0.95 44.45 0.95
L 33.15 0.95 33.15 -15.2 44.05 -15.2
Q 45.45 -15.2 46.7 -14.65 Z"/>

<path fill="#3C7FFF" stroke="none" d="
M 39.2 -35.15
Q 32.05 -35.15 25.6 -32.4 19.3 -29.75 14.5 -24.9 9.65 -20.1 7 -13.85 4.25 -7.35 4.25 -0.25 4.25 6.9 7 13.4 9.65 19.65 14.5 24.45 19.3 29.3 25.6 31.95 32.05 34.7 39.2 34.7 46.3 34.7 52.8 31.95 59.05 29.3 63.85 24.45 68.7 19.65 71.4 13.4 74.1 6.9 74.1 -0.25 74.1 -7.35 71.4 -13.85 68.7 -20.1 63.85 -24.9 59.05 -29.75 52.8 -32.4 46.3 -35.15 39.2 -35.15
M 44.5 -21.25
Q 47.45 -21.25 49.9 -20.05 52.4 -18.8 54.15 -16.85 56 -14.75 56.9 -12.3 57.95 -9.75 57.95 -7.15 57.95 -4.4 57 -1.85 56.1 0.6 54.35 2.65 52.6 4.6 50.2 5.85 47.8 7 44.85 7
L 33.15 7 33.15 22.1 26.3 22.1 26.3 -21.25 44.5 -21.25
M 48.9 -13
Q 47.9 -14.05 46.7 -14.65 45.45 -15.2 44.05 -15.2
L 33.15 -15.2 33.15 0.95 44.45 0.95
Q 45.9 0.95 47.1 0.35 48.3 -0.25 49.15 -1.35 50.05 -2.5 50.5 -3.9 50.95 -5.35 50.95 -7.15 50.95 -9 50.45 -10.45 49.9 -11.85 48.9 -13 Z"/>
</g>

<g id="Symbol_15_0_Layer0_0_FILL">
<path fill="#FFFFFF" stroke="none" d="
M 39.1 -39.1
Q 31.15 -39.1 23.9 -36.05 16.9 -33.05 11.5 -27.65 6.05 -22.2 3.1 -15.2 0 -7.95 0 0 0 7.95 3.1 15.2 6.05 22.25 11.5 27.65 16.85 33.05 23.9 36.05 31.15 39.1 39.1 39.1 47.05 39.1 54.3 36.05 61.3 33.05 66.75 27.65 72.15 22.25 75.15 15.2 78.2 7.95 78.2 0 78.2 -7.95 75.15 -15.2 72.15 -22.2 66.75 -27.65 61.3 -33.05 54.3 -36.05 47.05 -39.1 39.1 -39.1
M 25.55 -32.4
Q 32.05 -35.15 39.15 -35.15 46.25 -35.15 52.75 -32.4 59 -29.75 63.85 -24.9 68.7 -20.1 71.35 -13.8 74.05 -7.3 74.05 -0.2 74.05 6.9 71.35 13.4 68.7 19.65 63.85 24.5 59 29.35 52.75 32 46.25 34.7 39.15 34.7 32.05 34.7 25.55 32 19.3 29.35 14.5 24.5 9.65 19.65 6.95 13.4 4.25 6.9 4.25 -0.2 4.25 -7.3 6.95 -13.8 9.65 -20.1 14.5 -24.9 19.3 -29.75 25.55 -32.4 Z"/>

<path fill="#E8391C" stroke="none" d="
M 39.15 -35.15
Q 32.05 -35.15 25.55 -32.4 19.3 -29.75 14.5 -24.9 9.65 -20.1 6.95 -13.8 4.25 -7.3 4.25 -0.2 4.25 6.9 6.95 13.4 9.65 19.65 14.5 24.5 19.3 29.35 25.55 32 32.05 34.7 39.15 34.7 46.25 34.7 52.75 32 59 29.35 63.85 24.5 68.7 19.65 71.35 13.4 74.05 6.9 74.05 -0.2 74.05 -7.3 71.35 -13.8 68.7 -20.1 63.85 -24.9 59 -29.75 52.75 -32.4 46.25 -35.15 39.15 -35.15
M 9.4 -0.2
Q 9.4 -12.55 18.15 -21.25 26.8 -29.95 39.15 -29.95 51.45 -29.95 60.2 -21.25 68.9 -12.55 68.9 -0.2 68.9 12.1 60.2 20.8 51.45 29.5 39.15 29.5 26.85 29.5 18.15 20.8 9.4 12.1 9.4 -0.2
M 18.7 -9.2
L 16.85 -4.4
Q 16.1 -4.3 15.5 -3.7 14.75 -2.95 14.75 -1.85
L 14.75 4.2 16.6 4.2 16.6 6.15
Q 16.6 7.95 18.3 7.95 20 7.95 20 6.15
L 20 4.2 32.25 4.2 32.25 6.15
Q 32.25 7.95 34 7.95 35.7 7.95 35.7 6.15
L 35.7 4.2 37.5 4.2 37.5 -1.85
Q 37.5 -2.95 36.75 -3.7 36.15 -4.3 35.45 -4.4
L 33.6 -9.2
Q 32.9 -10.85 31.05 -10.85
L 21.25 -10.85
Q 19.3 -10.85 18.7 -9.2
M 16.8 -1.1
Q 16.8 -1.75 17.25 -2.2 17.7 -2.7 18.35 -2.7 19 -2.7 19.45 -2.2 19.9 -1.75 19.9 -1.1 19.9 -0.4 19.45 0.05 19 0.5 18.35 0.5 17.7 0.5 17.25 0.05 16.8 -0.4 16.8 -1.1
M 18.75 -4.55
L 20.15 -8.2
Q 20.45 -9.1 21.2 -9.15
L 31.05 -9.15
Q 31.8 -9.1 32.1 -8.2
L 33.5 -4.55 18.75 -4.55
M 32.35 -1.1
Q 32.35 -1.75 32.8 -2.2 33.25 -2.7 33.9 -2.7 34.55 -2.7 35.05 -2.2 35.5 -1.75 35.5 -1.1 35.5 -0.4 35.05 0.05 34.55 0.5 33.9 0.5 33.25 0.5 32.8 0.05 32.35 -0.4 32.35 -1.1 Z"/>

<path fill="#F6F6F6" stroke="none" d="
M 18.15 -21.25
Q 9.4 -12.55 9.4 -0.2 9.4 12.1 18.15 20.8 26.85 29.5 39.15 29.5 51.45 29.5 60.2 20.8 68.9 12.1 68.9 -0.2 68.9 -12.55 60.2 -21.25 51.45 -29.95 39.15 -29.95 26.8 -29.95 18.15 -21.25
M 16.85 -4.4
L 18.7 -9.2
Q 19.3 -10.85 21.25 -10.85
L 31.05 -10.85
Q 32.9 -10.85 33.6 -9.2
L 35.45 -4.4
Q 36.15 -4.3 36.75 -3.7 37.5 -2.95 37.5 -1.85
L 37.5 4.2 35.7 4.2 35.7 6.15
Q 35.7 7.95 34 7.95 32.25 7.95 32.25 6.15
L 32.25 4.2 20 4.2 20 6.15
Q 20 7.95 18.3 7.95 16.6 7.95 16.6 6.15
L 16.6 4.2 14.75 4.2 14.75 -1.85
Q 14.75 -2.95 15.5 -3.7 16.1 -4.3 16.85 -4.4
M 41.4 -3.7
Q 42 -4.3 42.7 -4.4
L 44.55 -9.2
Q 45.2 -10.85 47.1 -10.85
L 56.9 -10.85
Q 58.8 -10.85 59.45 -9.2
L 61.3 -4.4
Q 62 -4.3 62.6 -3.7 63.35 -2.95 63.35 -1.85
L 63.35 4.2 61.55 4.2 61.55 6.15
Q 61.55 7.95 59.85 7.95 58.1 7.95 58.1 6.15
L 58.1 4.2 45.85 4.2 45.85 6.15
Q 45.85 7.95 44.2 7.95 42.45 7.95 42.45 6.15
L 42.45 4.2 40.65 4.2 40.65 -1.85
Q 40.65 -2.95 41.4 -3.7
M 59.75 -2.7
Q 59.1 -2.7 58.65 -2.2 58.2 -1.75 58.2 -1.1 58.2 -0.4 58.65 0.05 59.1 0.5 59.75 0.5 60.4 0.5 60.9 0.05 61.35 -0.4 61.35 -1.1 61.35 -1.75 60.9 -2.2 60.4 -2.7 59.75 -2.7
M 43.1 -2.2
Q 42.65 -1.75 42.65 -1.1 42.65 -0.4 43.1 0.05 43.55 0.5 44.2 0.5 44.85 0.5 45.3 0.05 45.8 -0.4 45.8 -1.1 45.8 -1.75 45.3 -2.2 44.85 -2.7 44.2 -2.7 43.55 -2.7 43.1 -2.2
M 47.1 -9.15
Q 46.3 -9.1 46 -8.2
L 44.6 -4.55 59.4 -4.55 58 -8.2
Q 57.65 -9.1 56.9 -9.15
L 47.1 -9.15
M 32.8 -2.2
Q 32.35 -1.75 32.35 -1.1 32.35 -0.4 32.8 0.05 33.25 0.5 33.9 0.5 34.55 0.5 35.05 0.05 35.5 -0.4 35.5 -1.1 35.5 -1.75 35.05 -2.2 34.55 -2.7 33.9 -2.7 33.25 -2.7 32.8 -2.2
M 20.15 -8.2
L 18.75 -4.55 33.5 -4.55 32.1 -8.2
Q 31.8 -9.1 31.05 -9.15
L 21.2 -9.15
Q 20.45 -9.1 20.15 -8.2
M 17.25 -2.2
Q 16.8 -1.75 16.8 -1.1 16.8 -0.4 17.25 0.05 17.7 0.5 18.35 0.5 19 0.5 19.45 0.05 19.9 -0.4 19.9 -1.1 19.9 -1.75 19.45 -2.2 19 -2.7 18.35 -2.7 17.7 -2.7 17.25 -2.2 Z"/>

<path fill="#1E1E1E" stroke="none" d="
M 42.7 -4.4
Q 42 -4.3 41.4 -3.7 40.65 -2.95 40.65 -1.85
L 40.65 4.2 42.45 4.2 42.45 6.15
Q 42.45 7.95 44.2 7.95 45.85 7.95 45.85 6.15
L 45.85 4.2 58.1 4.2 58.1 6.15
Q 58.1 7.95 59.85 7.95 61.55 7.95 61.55 6.15
L 61.55 4.2 63.35 4.2 63.35 -1.85
Q 63.35 -2.95 62.6 -3.7 62 -4.3 61.3 -4.4
L 59.45 -9.2
Q 58.8 -10.85 56.9 -10.85
L 47.1 -10.85
Q 45.2 -10.85 44.55 -9.2
L 42.7 -4.4
M 46 -8.2
Q 46.3 -9.1 47.1 -9.15
L 56.9 -9.15
Q 57.65 -9.1 58 -8.2
L 59.4 -4.55 44.6 -4.55 46 -8.2
M 42.65 -1.1
Q 42.65 -1.75 43.1 -2.2 43.55 -2.7 44.2 -2.7 44.85 -2.7 45.3 -2.2 45.8 -1.75 45.8 -1.1 45.8 -0.4 45.3 0.05 44.85 0.5 44.2 0.5 43.55 0.5 43.1 0.05 42.65 -0.4 42.65 -1.1
M 58.65 -2.2
Q 59.1 -2.7 59.75 -2.7 60.4 -2.7 60.9 -2.2 61.35 -1.75 61.35 -1.1 61.35 -0.4 60.9 0.05 60.4 0.5 59.75 0.5 59.1 0.5 58.65 0.05 58.2 -0.4 58.2 -1.1 58.2 -1.75 58.65 -2.2 Z"/>
</g>

<g id="Symbol_16_0_Layer0_0_FILL">
<path fill="#FFFFFF" stroke="none" d="
M 40.4 -35.15
Q 38.6 -35.15 37.1 -34.3 35.55 -33.45 34.65 -31.9
L 0.9 25.05
Q 0 26.6 0 28.4 -0.05 30.2 0.85 31.8 1.75 33.35 3.3 34.25 4.9 35.15 6.7 35.15
L 74.15 35.15
Q 75.95 35.15 77.5 34.25 79.05 33.35 79.95 31.8 80.85 30.2 80.8 28.4 80.8 26.6 79.9 25.05
L 46.15 -31.9
Q 45.25 -33.45 43.7 -34.3 42.2 -35.15 40.4 -35.15
M 38.3 -30
Q 39 -31.2 40.45 -31.2 41.9 -31.2 42.6 -30
L 76.35 27
Q 77.1 28.25 76.35 29.5 75.65 30.75 74.2 30.75
L 6.7 30.75
Q 5.25 30.75 4.55 29.5 3.8 28.25 4.55 27
L 38.3 -30 Z"/>

<path fill="#E8391C" stroke="none" d="
M 40.45 -31.2
Q 39 -31.2 38.3 -30
L 4.55 27
Q 3.8 28.25 4.55 29.5 5.25 30.75 6.7 30.75
L 74.2 30.75
Q 75.65 30.75 76.35 29.5 77.1 28.25 76.35 27
L 42.6 -30
Q 41.9 -31.2 40.45 -31.2
M 69.45 25.25
L 11.45 25.25 40.45 -23.75 69.45 25.25 Z"/>

<path fill="#F6F6F6" stroke="none" d="
M 11.45 25.25
L 69.45 25.25 40.45 -23.75 11.45 25.25
M 37.75 -12
Q 38.45 -12.75 39.45 -12.9 41 -13.1 42.05 -11.95 43.15 -10.8 42.75 -9.25 42.6 -8.4 41.95 -7.8 41.35 -7.2 40.55 -7 39 -6.65 37.85 -7.7 36.7 -8.75 36.9 -10.3 37 -11.3 37.75 -12
M 36.2 -1.15
Q 37.65 -3.4 38.4 -4.2 39.2 -5.05 41.05 -5.9 42.65 -6.6 43.3 -6.6 43.7 -6.6 46.75 -3.75 48.25 -2.35 49.7 -0.9
L 49.6 2.55
Q 49.4 5.95 48.75 5.95
L 46.75 5.95 47.05 0.85 45 -1.65 44.65 6.55 50.45 17
Q 50.3 17.4 50.05 17.85
L 50.35 17.85 46 23.9 42.4 23.9 47.2 18.15
Q 46.25 16.8 44.65 13.8
L 41.9 8.45 41 10.1
Q 39.9 12.05 38.7 14.05 36.8 17.05 35.85 17.85
L 36.15 17.85 31.85 23.9 28.2 23.9 32.95 18.25
Q 32.8 18.2 32.7 18.1 32.6 17.9 32.7 17.7
L 39.5 4.85 39.05 0.65 36.1 3.85
Q 35.15 4.1 34.05 4.3 31.85 4.6 31.15 4.15 30.45 3.65 30.45 2.8
L 30.6 2 34.85 0.9 36.2 -1.15
M 61.65 17.85
L 64.55 17.85 60.2 23.9 56.55 23.9 61.65 17.85
M 57.45 17.85
L 53.1 23.9 49.45 23.9 54.55 17.85 57.45 17.85
M 29.05 17.85
L 24.75 23.9 21.15 23.9 26.2 17.85 29.05 17.85
M 38.9 23.9
L 35.3 23.9 40.35 17.85 43.25 17.85 38.9 23.9
M 17.65 23.9
L 14.05 23.9 19.1 17.85 21.95 17.85 17.65 23.9 Z"/>

<path fill="#1E1E1E" stroke="none" d="
M 14.05 23.9
L 17.65 23.9 21.95 17.85 19.1 17.85 14.05 23.9
M 35.3 23.9
L 38.9 23.9 43.25 17.85 40.35 17.85 35.3 23.9
M 24.75 23.9
L 29.05 17.85 26.2 17.85 21.15 23.9 24.75 23.9
M 53.1 23.9
L 57.45 17.85 54.55 17.85 49.45 23.9 53.1 23.9
M 64.55 17.85
L 61.65 17.85 56.55 23.9 60.2 23.9 64.55 17.85
M 38.4 -4.2
Q 37.65 -3.4 36.2 -1.15
L 34.85 0.9 30.6 2 30.45 2.8
Q 30.45 3.65 31.15 4.15 31.85 4.6 34.05 4.3 35.15 4.1 36.1 3.85
L 39.05 0.65 39.5 4.85 32.7 17.7
Q 32.6 17.9 32.7 18.1 32.8 18.2 32.95 18.25
L 28.2 23.9 31.85 23.9 36.15 17.85 35.85 17.85
Q 36.8 17.05 38.7 14.05 39.9 12.05 41 10.1
L 41.9 8.45 44.65 13.8
Q 46.25 16.8 47.2 18.15
L 42.4 23.9 46 23.9 50.35 17.85 50.05 17.85
Q 50.3 17.4 50.45 17
L 44.65 6.55 45 -1.65 47.05 0.85 46.75 5.95 48.75 5.95
Q 49.4 5.95 49.6 2.55
L 49.7 -0.9
Q 48.25 -2.35 46.75 -3.75 43.7 -6.6 43.3 -6.6 42.65 -6.6 41.05 -5.9 39.2 -5.05 38.4 -4.2
M 39.45 -12.9
Q 38.45 -12.75 37.75 -12 37 -11.3 36.9 -10.3 36.7 -8.75 37.85 -7.7 39 -6.65 40.55 -7 41.35 -7.2 41.95 -7.8 42.6 -8.4 42.75 -9.25 43.15 -10.8 42.05 -11.95 41 -13.1 39.45 -12.9 Z"/>
</g>

<g id="Symbol_17_0_Layer0_0_FILL">
<path fill="#FFFFFF" stroke="none" d="
M 39.1 -39.1
Q 31.15 -39.1 23.9 -36 16.9 -33.05 11.5 -27.6 6.05 -22.2 3.1 -15.2 0 -7.9 0 0 0 7.95 3.1 15.2 6.05 22.25 11.5 27.65 16.85 33.1 23.9 36.05 31.15 39.15 39.1 39.15 47.05 39.15 54.3 36.05 61.3 33.1 66.75 27.65 72.15 22.25 75.15 15.2 78.2 7.95 78.2 0 78.2 -7.9 75.15 -15.2 72.15 -22.2 66.75 -27.6 61.3 -33.05 54.3 -36 47.05 -39.1 39.1 -39.1
M 25.55 -32.4
Q 32.05 -35.15 39.15 -35.15 46.25 -35.15 52.75 -32.4 59 -29.75 63.85 -24.9 68.7 -20.05 71.35 -13.8 74.05 -7.3 74.05 -0.2 74.05 6.9 71.35 13.4 68.7 19.7 63.85 24.5 59 29.35 52.75 32 46.25 34.75 39.15 34.75 32.05 34.75 25.55 32 19.3 29.35 14.5 24.5 9.65 19.7 6.95 13.4 4.25 6.9 4.25 -0.2 4.25 -7.3 6.95 -13.8 9.65 -20.05 14.5 -24.9 19.3 -29.75 25.55 -32.4
M 36.9 -11.5
Q 36.6 -11.4 36.55 -11.05 36.5 -10.75 36.75 -10.5
L 40.1 -7.85 17.5 14.8 24.65 22 47.3 -0.65 49.95 2.7
Q 50.2 2.95 50.5 2.9 50.85 2.85 50.95 2.5
L 58.35 -18.15
Q 58.45 -18.5 58.2 -18.75 57.95 -19.05 57.6 -18.9
L 36.9 -11.5 Z"/>

<path fill="#3C7FFF" stroke="none" d="
M 39.15 -35.15
Q 32.05 -35.15 25.55 -32.4 19.3 -29.75 14.5 -24.9 9.65 -20.05 6.95 -13.8 4.25 -7.3 4.25 -0.2 4.25 6.9 6.95 13.4 9.65 19.7 14.5 24.5 19.3 29.35 25.55 32 32.05 34.75 39.15 34.75 46.25 34.75 52.75 32 59 29.35 63.85 24.5 68.7 19.7 71.35 13.4 74.05 6.9 74.05 -0.2 74.05 -7.3 71.35 -13.8 68.7 -20.05 63.85 -24.9 59 -29.75 52.75 -32.4 46.25 -35.15 39.15 -35.15
M 36.55 -11.05
Q 36.6 -11.4 36.9 -11.5
L 57.6 -18.9
Q 57.95 -19.05 58.2 -18.75 58.45 -18.5 58.35 -18.15
L 50.95 2.5
Q 50.85 2.85 50.5 2.9 50.2 2.95 49.95 2.7
L 47.3 -0.65 24.65 22 17.5 14.8 40.1 -7.85 36.75 -10.5
Q 36.5 -10.75 36.55 -11.05 Z"/>
</g>

<g id="Symbol_18_0_Layer0_0_FILL">
<path fill="#FFFFFF" stroke="none" d="
M 39.1 -39.1
Q 31.15 -39.1 23.9 -36.05 16.9 -33.05 11.5 -27.65 6.05 -22.2 3.1 -15.2 0 -7.95 0 0 0 7.95 3.1 15.2 6.05 22.25 11.5 27.65 16.85 33.05 23.9 36.05 31.15 39.1 39.1 39.1 47.05 39.1 54.3 36.05 61.3 33.05 66.75 27.65 72.15 22.25 75.15 15.2 78.2 7.95 78.2 0 78.2 -7.95 75.15 -15.2 72.15 -22.2 66.75 -27.65 61.3 -33.05 54.3 -36.05 47.05 -39.1 39.1 -39.1
M 25.55 -32.4
Q 32.05 -35.15 39.15 -35.15 46.25 -35.15 52.75 -32.4 59 -29.75 63.85 -24.9 68.7 -20.1 71.35 -13.8 74.05 -7.3 74.05 -0.2 74.05 6.9 71.35 13.4 68.7 19.65 63.85 24.5 59 29.35 52.75 32 46.25 34.7 39.15 34.7 32.05 34.7 25.55 32 19.3 29.35 14.5 24.5 9.65 19.65 6.95 13.4 4.25 6.9 4.25 -0.2 4.25 -7.3 6.95 -13.8 9.65 -20.1 14.5 -24.9 19.3 -29.75 25.55 -32.4 Z"/>

<path fill="#E8391C" stroke="none" d="
M 39.15 -35.15
Q 32.05 -35.15 25.55 -32.4 19.3 -29.75 14.5 -24.9 9.65 -20.1 6.95 -13.8 4.25 -7.3 4.25 -0.2 4.25 6.9 6.95 13.4 9.65 19.65 14.5 24.5 19.3 29.35 25.55 32 32.05 34.7 39.15 34.7 46.25 34.7 52.75 32 59 29.35 63.85 24.5 68.7 19.65 71.35 13.4 74.05 6.9 74.05 -0.2 74.05 -7.3 71.35 -13.8 68.7 -20.1 63.85 -24.9 59 -29.75 52.75 -32.4 46.25 -35.15 39.15 -35.15
M 9.85 -0.2
Q 9.85 -12.35 18.45 -20.95 27 -29.5 39.15 -29.5 51.3 -29.5 59.85 -20.95 68.45 -12.35 68.45 -0.2 68.45 11.9 59.85 20.5 51.3 29.1 39.15 29.1 27 29.1 18.45 20.5 9.85 11.9 9.85 -0.2 Z"/>

<path fill="#F6F6F6" stroke="none" d="
M 18.45 -20.95
Q 9.85 -12.35 9.85 -0.2 9.85 11.9 18.45 20.5 27 29.1 39.15 29.1 51.3 29.1 59.85 20.5 68.45 11.9 68.45 -0.2 68.45 -12.35 59.85 -20.95 51.3 -29.5 39.15 -29.5 27 -29.5 18.45 -20.95
M 37.4 -19.15
L 37.85 -19.2
Q 38.45 -19.25 38.9 -19.2 39.6 -19.15 40.05 -18.2
L 40.3 -16.15 41.2 -14.8 43.15 -13.1 44.85 -10.9 47.3 -6.2 46.9 -5.9
Q 46.7 -5.6 47.75 -5.6
L 53.25 -5.75 53.85 -5.35 54.2 -3.5 55.6 -3.15 56.15 -2.7 57.1 -2.4 59.1 -2.5 59.5 -1.8 59.95 2.7 59.15 3.4 58.8 3.35 59.05 3.95 58.3 4.2
Q 58.95 6.3 58.3 8.35 57.6 10.45 55.75 11.7 54.25 12.65 52.5 12.8 50.8 12.9 49.25 12.15 47.6 11.35 46.6 9.9 46.2 9.3 45.9 8.55
L 45.15 8.8
Q 44.95 8.15 44.8 7.45
L 44.75 7.65 42.05 7.75 41.5 8.6 41.1 8.8 39.85 8.9 39.3 8.25
Q 37.75 7.95 37.05 7.75 36.6 7.6 35.7 6.75
L 34.85 6 33.95 2.5 33.35 1.3 30.35 -1.55 28.5 -1.8 27.7 -0.5
Q 29.9 0.7 30.95 3 32 5.35 31.3 7.8
L 30.55 7.6
Q 30 9.65 28.25 11
L 28.25 11.05 27.4 11.6 27.15 11.7 27.15 11.75 27.05 11.8 27 11.8 26.9 11.85 26.75 11.85 26.7 11.9 26.65 11.9 26.45 12 26.4 12.05 26.25 12.05 26.15 12.1 26.1 12.1 26.05 12.15 26 12.15 25.9 12.2 25.65 12.25 25.45 12.25 25.3 12.3 25.2 12.3 24.95 12.35 24.75 12.35 24.65 12.4 24.25 12.4
Q 22.3 12.4 20.65 11.3 19.05 10.2 18.25 8.45 17.7 7.2 17.7 5.8
L 17.7 5.3 17.75 5.25 17.75 4.85 17.8 4.8 17.8 4.55 17.85 4.45 17.85 4.35 17.9 4.3 17.9 4.2 17.95 4.15 17.95 4.1 18.25 3.2
Q 18.05 3.65 17.85 4.3
L 17.1 4.1
Q 17.45 2.8 18.25 1.65 19.3 0.2 20.9 -0.6 22.5 -1.4 24.25 -1.4 25.2 -1.4 26.05 -1.15
L 26.1 -1.15 26 -1.2
Q 26.45 -1.45 26.45 -2.25
L 26.3 -3.4
Q 25.8 -3.5 25.65 -4.1 25.55 -4.4 25.55 -4.95
L 25.55 -5.35 26.7 -6.3
Q 26.85 -8 27.3 -9.95 28.15 -13.75 29.4 -14.75
L 29.15 -9.05 32 -8.8 32.35 -8.05 38.3 -11.85
Q 38.35 -12.25 38.3 -12.55
L 38.25 -12.8 38 -13.6 37.3 -14
Q 36.9 -14.2 36.5 -14.7 36.1 -15.1 35.9 -15.3 35.65 -15.6 35.65 -15.9
L 35.65 -17.4 36.25 -18.5 37.4 -19.15
M 28.6 5.8
Q 28.6 4.7 28.05 3.75 27.5 2.8 26.65 2.2
L 25.2 5.35 25.15 5.35
Q 25.25 5.55 25.25 5.85 25.25 6.3 25 6.6 24.7 6.95 24.25 6.95
L 24.2 6.95
Q 23.75 6.95 23.45 6.65 23.1 6.35 23.1 5.85 23.1 5.45 23.45 5.1 23.75 4.8 24.2 4.8
L 25.6 1.7
Q 24.85 1.5 24.25 1.5 22.5 1.5 21.2 2.75 19.95 4.05 19.95 5.8 19.95 7.6 21.2 8.85 22.5 10.15 24.25 10.15 26.05 10.15 27.35 8.85 28.6 7.6 28.6 5.8
M 50.65 5.65
L 50.65 5.6 49.4 5.6 50.4 4 49.65 2.7 49.25 3
Q 48.05 4.05 47.8 5.65
L 50.65 5.65
M 55.65 3.85
Q 54.9 2.7 53.65 2.2 52.4 1.75 51.15 2
L 53.35 4.9
Q 53.65 5.25 53.65 5.8 53.65 6.45 53.25 6.9 52.75 7.3 52.15 7.3 51.65 7.3 51.2 7
L 47.8 7
Q 48 7.95 48.5 8.65 48.85 9.2 49.25 9.5 50.35 10.45 51.8 10.55 53.25 10.65 54.5 9.85 55.95 8.85 56.3 7.1 56.65 5.3 55.65 3.85
M 38.5 -6.55
Q 38.25 -7.5 38.1 -8.6
L 33.15 -6.55 38.5 -6.55 Z"/>

<path fill="#1E1E1E" stroke="none" d="
M 37.85 -19.2
L 37.4 -19.15 36.25 -18.5 35.65 -17.4 35.65 -15.9
Q 35.65 -15.6 35.9 -15.3 36.1 -15.1 36.5 -14.7 36.9 -14.2 37.3 -14
L 38 -13.6 38.25 -12.8 38.3 -12.55
Q 38.35 -12.25 38.3 -11.85
L 32.35 -8.05 32 -8.8 29.15 -9.05 29.4 -14.75
Q 28.15 -13.75 27.3 -9.95 26.85 -8 26.7 -6.3
L 25.55 -5.35 25.55 -4.95
Q 25.55 -4.4 25.65 -4.1 25.8 -3.5 26.3 -3.4
L 26.45 -2.25
Q 26.45 -1.45 26 -1.2
L 26.1 -1.15 26.05 -1.15
Q 25.2 -1.4 24.25 -1.4 22.5 -1.4 20.9 -0.6 19.3 0.2 18.25 1.65 17.45 2.8 17.1 4.1
L 17.85 4.3
Q 18.05 3.65 18.25 3.2
L 17.95 4.1 17.95 4.15 17.9 4.2 17.9 4.3 17.85 4.35 17.85 4.45 17.8 4.55 17.8 4.8 17.75 4.85 17.75 5.25 17.7 5.3 17.7 5.8
Q 17.7 7.2 18.25 8.45 19.05 10.2 20.65 11.3 22.3 12.4 24.25 12.4
L 24.65 12.4 24.75 12.35 24.95 12.35 25.2 12.3 25.3 12.3 25.45 12.25 25.65 12.25 25.9 12.2 26 12.15 26.05 12.15 26.1 12.1 26.15 12.1 26.25 12.05 26.4 12.05 26.45 12 26.65 11.9 26.7 11.9 26.75 11.85 26.9 11.85 27 11.8 27.05 11.8 27.15 11.75 27.15 11.7 27.4 11.6 28.25 11.05 28.25 11
Q 30 9.65 30.55 7.6
L 31.3 7.8
Q 32 5.35 30.95 3 29.9 0.7 27.7 -0.5
L 28.5 -1.8 30.35 -1.55 33.35 1.3 33.95 2.5 34.85 6 35.7 6.75
Q 36.6 7.6 37.05 7.75 37.75 7.95 39.3 8.25
L 39.85 8.9 41.1 8.8 41.5 8.6 42.05 7.75 44.75 7.65 44.8 7.45
Q 44.95 8.15 45.15 8.8
L 45.9 8.55
Q 46.2 9.3 46.6 9.9 47.6 11.35 49.25 12.15 50.8 12.9 52.5 12.8 54.25 12.65 55.75 11.7 57.6 10.45 58.3 8.35 58.95 6.3 58.3 4.2
L 59.05 3.95 58.8 3.35 59.15 3.4 59.95 2.7 59.5 -1.8 59.1 -2.5 57.1 -2.4 56.15 -2.7 55.6 -3.15 54.2 -3.5 53.85 -5.35 53.25 -5.75 47.75 -5.6
Q 46.7 -5.6 46.9 -5.9
L 47.3 -6.2 44.85 -10.9 43.15 -13.1 41.2 -14.8 40.3 -16.15 40.05 -18.2
Q 39.6 -19.15 38.9 -19.2 38.45 -19.25 37.85 -19.2
M 38.1 -8.6
Q 38.25 -7.5 38.5 -6.55
L 33.15 -6.55 38.1 -8.6
M 53.65 2.2
Q 54.9 2.7 55.65 3.85 56.65 5.3 56.3 7.1 55.95 8.85 54.5 9.85 53.25 10.65 51.8 10.55 50.35 10.45 49.25 9.5 48.85 9.2 48.5 8.65 48 7.95 47.8 7
L 51.2 7
Q 51.65 7.3 52.15 7.3 52.75 7.3 53.25 6.9 53.65 6.45 53.65 5.8 53.65 5.25 53.35 4.9
L 51.15 2
Q 52.4 1.75 53.65 2.2
M 50.65 5.6
L 50.65 5.65 47.8 5.65
Q 48.05 4.05 49.25 3
L 49.65 2.7 50.4 4 49.4 5.6 50.65 5.6
M 28.05 3.75
Q 28.6 4.7 28.6 5.8 28.6 7.6 27.35 8.85 26.05 10.15 24.25 10.15 22.5 10.15 21.2 8.85 19.95 7.6 19.95 5.8 19.95 4.05 21.2 2.75 22.5 1.5 24.25 1.5 24.85 1.5 25.6 1.7
L 24.2 4.8
Q 23.75 4.8 23.45 5.1 23.1 5.45 23.1 5.85 23.1 6.35 23.45 6.65 23.75 6.95 24.2 6.95
L 24.25 6.95
Q 24.7 6.95 25 6.6 25.25 6.3 25.25 5.85 25.25 5.55 25.15 5.35
L 25.2 5.35 26.65 2.2
Q 27.5 2.8 28.05 3.75 Z"/>
</g>

<g id="Symbol_19_0_Layer0_0_FILL">
<path fill="#FFFFFF" stroke="none" d="
M 39.1 -39.1
Q 31.15 -39.1 23.9 -36.05 16.9 -33.05 11.45 -27.65 6.05 -22.2 3.1 -15.2 0 -7.95 0 0 0 7.95 3.1 15.2 6.05 22.2 11.45 27.6 16.9 33.05 23.9 36 31.15 39.1 39.1 39.1 47.05 39.1 54.3 36 61.35 33.05 66.75 27.6 72.2 22.2 75.15 15.2 78.25 7.95 78.25 0 78.25 -7.95 75.15 -15.2 72.2 -22.2 66.75 -27.65 61.35 -33.05 54.3 -36.05 47.05 -39.1 39.1 -39.1
M 25.55 -32.4
Q 32.05 -35.15 39.15 -35.15 46.3 -35.15 52.75 -32.4 59.05 -29.75 63.85 -24.9 68.7 -20.1 71.35 -13.8 74.1 -7.35 74.1 -0.2 74.1 6.9 71.35 13.35 68.7 19.65 63.85 24.5 59.05 29.3 52.75 31.95 46.3 34.7 39.15 34.7 32.05 34.7 25.55 31.95 19.3 29.3 14.45 24.5 9.65 19.65 6.95 13.35 4.25 6.9 4.25 -0.2 4.25 -7.35 6.95 -13.8 9.65 -20.1 14.45 -24.9 19.3 -29.75 25.55 -32.4 Z"/>

<path fill="#E8391C" stroke="none" d="
M 39.15 -35.15
Q 32.05 -35.15 25.55 -32.4 19.3 -29.75 14.45 -24.9 9.65 -20.1 6.95 -13.8 4.25 -7.35 4.25 -0.2 4.25 6.9 6.95 13.35 9.65 19.65 14.45 24.5 19.3 29.3 25.55 31.95 32.05 34.7 39.15 34.7 46.3 34.7 52.75 31.95 59.05 29.3 63.85 24.5 68.7 19.65 71.35 13.35 74.1 6.9 74.1 -0.2 74.1 -7.35 71.35 -13.8 68.7 -20.1 63.85 -24.9 59.05 -29.75 52.75 -32.4 46.3 -35.15 39.15 -35.15
M 9.85 -0.2
Q 9.85 -11.15 16.8 -19.15
L 58.1 22.15
Q 50.1 29.1 39.15 29.1 27.05 29.1 18.45 20.5 9.85 11.9 9.85 -0.2
M 21.15 -23.3
Q 28.85 -29.55 39.15 -29.55 51.3 -29.55 59.9 -20.95 68.5 -12.35 68.5 -0.2 68.5 10.1 62.3 17.85
L 21.15 -23.3 Z"/>

<path fill="#3C7FFF" stroke="none" d="
M 39.15 -29.55
Q 28.85 -29.55 21.15 -23.3
L 62.3 17.85
Q 68.5 10.1 68.5 -0.2 68.5 -12.35 59.9 -20.95 51.3 -29.55 39.15 -29.55
M 16.8 -19.15
Q 9.85 -11.15 9.85 -0.2 9.85 11.9 18.45 20.5 27.05 29.1 39.15 29.1 50.1 29.1 58.1 22.15
L 16.8 -19.15 Z"/>
</g>

<g id="Symbol_20_0_Layer0_0_FILL">
<path fill="#FFFFFF" stroke="none" d="
M 39.1 -39.1
Q 31.15 -39.1 23.9 -36.05 16.9 -33.05 11.45 -27.65 6.05 -22.2 3.1 -15.2 0 -7.95 0 0 0 7.95 3.1 15.2 6.05 22.25 11.45 27.65 16.9 33.05 23.9 36.05 31.15 39.1 39.1 39.1 47.05 39.1 54.3 36.05 61.35 33.05 66.75 27.65 72.2 22.25 75.15 15.2 78.25 7.95 78.25 0 78.25 -7.95 75.15 -15.2 72.2 -22.2 66.75 -27.65 61.35 -33.05 54.3 -36.05 47.05 -39.1 39.1 -39.1
M 25.55 -32.4
Q 32.05 -35.15 39.15 -35.15 46.3 -35.15 52.75 -32.4 59.05 -29.75 63.85 -24.9 68.7 -20.1 71.35 -13.8 74.1 -7.3 74.1 -0.2 74.1 6.9 71.35 13.4 68.7 19.65 63.85 24.5 59.05 29.35 52.75 32 46.3 34.7 39.15 34.7 32.05 34.7 25.55 32 19.3 29.35 14.45 24.5 9.65 19.65 6.95 13.4 4.25 6.9 4.25 -0.2 4.25 -7.3 6.95 -13.8 9.65 -20.1 14.45 -24.9 19.3 -29.75 25.55 -32.4 Z"/>

<path fill="#E8391C" stroke="none" d="
M 39.15 -35.15
Q 32.05 -35.15 25.55 -32.4 19.3 -29.75 14.45 -24.9 9.65 -20.1 6.95 -13.8 4.25 -7.3 4.25 -0.2 4.25 6.9 6.95 13.4 9.65 19.65 14.45 24.5 19.3 29.35 25.55 32 32.05 34.7 39.15 34.7 46.3 34.7 52.75 32 59.05 29.35 63.85 24.5 68.7 19.65 71.35 13.4 74.1 6.9 74.1 -0.2 74.1 -7.3 71.35 -13.8 68.7 -20.1 63.85 -24.9 59.05 -29.75 52.75 -32.4 46.3 -35.15 39.15 -35.15
M 9.9 -0.2
Q 9.9 -12.4 18.5 -21 27.15 -29.65 39.35 -29.65 51.55 -29.65 60.15 -21 68.75 -12.4 68.75 -0.2 68.75 11.95 60.15 20.6 51.55 29.25 39.35 29.25 27.15 29.25 18.5 20.6 9.9 11.95 9.9 -0.2
M 37.1 -5.2
L 29.95 -19.25 22.75 -5.2 27.25 -6.5 27.25 16.65 32.65 16.65 32.65 -6.5 37.1 -5.2 Z"/>

<path fill="#F6F6F6" stroke="none" d="
M 18.5 -21
Q 9.9 -12.4 9.9 -0.2 9.9 11.95 18.5 20.6 27.15 29.25 39.35 29.25 51.55 29.25 60.15 20.6 68.75 11.95 68.75 -0.2 68.75 -12.4 60.15 -21 51.55 -29.65 39.35 -29.65 27.15 -29.65 18.5 -21
M 29.95 -19.25
L 37.1 -5.2 32.65 -6.5 32.65 16.65 27.25 16.65 27.25 -6.5 22.75 -5.2 29.95 -19.25
M 45.7 -19.25
L 51.1 -19.25 51.1 3.95 55.55 2.65 48.4 16.65 41.25 2.65 45.7 3.95 45.7 -19.25 Z"/>

<path fill="#1E1E1E" stroke="none" d="
M 51.1 -19.25
L 45.7 -19.25 45.7 3.95 41.25 2.65 48.4 16.65 55.55 2.65 51.1 3.95 51.1 -19.25 Z"/>
</g>

<path id="Symbol_3_0_Layer0_0_1_STROKES" stroke="#FFFFFF" stroke-width="3" stroke-linejoin="miter" stroke-linecap="butt" stroke-miterlimit="10" fill="none" d="
M 52.75 68.55
L 12.3 28.1 12.3 -29.1 52.75 -69.5 109.9 -69.5 150.35 -29.1 150.35 28.1 109.9 68.55 52.75 68.55 Z"/>

<path id="Symbol_3_0_Layer0_0_2_STROKES" stroke="#FFFFFF" stroke-width="1" stroke-linejoin="miter" stroke-linecap="butt" stroke-miterlimit="10" fill="none" d="
M 47.6 81.2
L 0 33.6 0 -33.7 47.6 -81.25 114.85 -81.25 162.45 -33.7 162.45 33.6 114.85 81.2 47.6 81.2 Z"/>

<path id="Symbol_5_0_Layer0_0_1_STROKES" stroke="#FFFFFF" stroke-width="1" stroke-linejoin="miter" stroke-linecap="butt" stroke-miterlimit="10" fill="none" d="
M 80.75 80.75
Q 64.35 80.75 49.35 74.4 34.85 68.25 23.7 57.05 12.5 45.85 6.35 31.35 0 16.35 0 -0.05 0 -16.45 6.35 -31.45 12.5 -45.95 23.7 -57.15 34.9 -68.3 49.35 -74.45 64.35 -80.8 80.75 -80.8 97.15 -80.8 112.15 -74.45 126.65 -68.3 137.85 -57.15 149.05 -45.95 155.2 -31.45 161.55 -16.45 161.55 -0.05 161.55 16.35 155.2 31.35 149.05 45.85 137.85 57.05 126.65 68.25 112.15 74.4 97.15 80.75 80.75 80.75 Z"/>

<path id="Symbol_5_0_Layer0_0_2_STROKES" stroke="#FFFFFF" stroke-width="2" stroke-linejoin="miter" stroke-linecap="butt" stroke-miterlimit="10" fill="none" d="
M 149.35 -0.5
Q 149.35 27.9 129.3 47.95 109.25 68 80.85 68 52.5 68 32.45 47.95 12.4 27.9 12.4 -0.5 12.4 -28.85 32.45 -48.9 52.5 -68.95 80.85 -68.95 109.25 -68.95 129.3 -48.9 149.35 -28.85 149.35 -0.5 Z"/>

<path id="Symbol_6_0_Layer0_0_1_STROKES" stroke="#FFFFFF" stroke-width="1" stroke-linejoin="miter" stroke-linecap="butt" stroke-miterlimit="10" fill="none" d="
M 80.75 80.75
Q 64.35 80.75 49.35 74.4 34.85 68.25 23.65 57.05 12.5 45.85 6.35 31.35 0 16.35 0 -0.05 0 -16.45 6.35 -31.45 12.5 -45.95 23.65 -57.15 34.85 -68.3 49.35 -74.45 64.35 -80.8 80.75 -80.8 97.15 -80.8 112.15 -74.45 126.65 -68.3 137.85 -57.15 149.05 -45.95 155.2 -31.45 161.55 -16.45 161.55 -0.05 161.55 16.35 155.2 31.35 149.05 45.85 137.85 57.05 126.65 68.25 112.15 74.4 97.15 80.75 80.75 80.75 Z"/>

<path id="Symbol_8_0_Layer0_0_1_STROKES" stroke="#FFFFFF" stroke-width="1" stroke-linejoin="miter" stroke-linecap="butt" stroke-miterlimit="10" fill="none" d="
M 39.1 39.1
Q 31.15 39.1 23.9 36 16.9 33.05 11.5 27.6 6.05 22.2 3.1 15.2 0 7.95 0 0 0 -7.95 3.1 -15.2 6.05 -22.2 11.5 -27.65 16.9 -33.05 23.9 -36.05 31.15 -39.1 39.1 -39.1 47.05 -39.1 54.3 -36.05 61.3 -33.05 66.75 -27.65 72.15 -22.2 75.15 -15.2 78.2 -7.95 78.2 0 78.2 7.95 75.15 15.2 72.15 22.2 66.75 27.6 61.3 33.05 54.3 36 47.05 39.1 39.1 39.1 Z"/>

<path id="Symbol_9_0_Layer0_0_1_STROKES" stroke="#FFFFFF" stroke-width="1" stroke-linejoin="miter" stroke-linecap="butt" stroke-miterlimit="10" fill="none" d="
M 39.1 39.1
Q 31.15 39.1 23.9 36 16.9 33.05 11.45 27.6 6.05 22.2 3.05 15.2 0 7.95 0 0 0 -7.95 3.05 -15.2 6.05 -22.2 11.45 -27.65 16.9 -33.05 23.9 -36.05 31.15 -39.1 39.1 -39.1 47.05 -39.1 54.3 -36.05 61.3 -33.05 66.75 -27.65 72.15 -22.2 75.15 -15.2 78.2 -7.95 78.2 0 78.2 7.95 75.15 15.2 72.15 22.2 66.75 27.6 61.3 33.05 54.3 36 47.05 39.1 39.1 39.1 Z"/>

<path id="Symbol_10_0_Layer0_0_1_STROKES" stroke="#FFFFFF" stroke-width="1" stroke-linejoin="miter" stroke-linecap="butt" stroke-miterlimit="10" fill="none" d="
M 39.1 39.15
Q 31.15 39.15 23.9 36.05 16.85 33.1 11.5 27.65 6.05 22.25 3.1 15.2 0 7.95 0 0 0 -7.9 3.1 -15.2 6.05 -22.2 11.5 -27.65 16.9 -33.05 23.9 -36.05 31.15 -39.1 39.1 -39.1 47.05 -39.1 54.3 -36.05 61.3 -33.05 66.75 -27.65 72.15 -22.2 75.15 -15.2 78.2 -7.9 78.2 0 78.2 7.95 75.15 15.2 72.15 22.25 66.75 27.65 61.3 33.1 54.3 36.05 47.05 39.15 39.1 39.15 Z"/>

<path id="Symbol_11_0_Layer0_0_1_STROKES" stroke="#1E1E1E" stroke-width="3" stroke-linejoin="miter" stroke-linecap="butt" stroke-miterlimit="10" fill="none" d="
M 83.3 -1.2
Q 83.75 -0.8 83.75 -0.2 83.75 0.4 83.3 0.85
L 48.5 35.7
Q 48.05 36.1 47.45 36.1 46.85 36.1 46.45 35.7
L 11.6 0.85
Q 11.15 0.4 11.15 -0.2 11.15 -0.8 11.6 -1.2
L 46.45 -36.05
Q 46.85 -36.45 47.45 -36.45 48.05 -36.45 48.5 -36.05
L 83.3 -1.2 Z"/>

<path id="Symbol_11_0_Layer0_0_2_STROKES" stroke="#FFFFFF" stroke-width="1" stroke-linejoin="miter" stroke-linecap="butt" stroke-miterlimit="10" fill="none" d="
M 0 0.05
L 47.4 -47.35 94.8 0.05 47.4 47.4 0 0.05 Z"/>

<path id="Symbol_12_0_Layer0_0_1_STROKES" stroke="#FFFFFF" stroke-width="1" stroke-linejoin="miter" stroke-linecap="butt" stroke-miterlimit="10" fill="none" d="
M 6.7 35.2
Q 4.9 35.2 3.3 34.3 3.2 34.25 3.05 34.15 1.7 33.25 0.85 31.8 -0.05 30.25 0 28.45 0 26.65 0.9 25.1
L 34.65 -31.85
Q 35.55 -33.4 37.1 -34.25 38.65 -35.15 40.4 -35.15 42.2 -35.15 43.7 -34.25 45.25 -33.4 46.15 -31.85
L 79.9 25.1
Q 80.8 26.65 80.8 28.45 80.85 30.25 79.95 31.8 79.05 33.4 77.5 34.3 76.7 34.75 75.85 35 75.05 35.2 74.15 35.2
L 6.7 35.2 Z"/>

<path id="Symbol_13_0_Layer0_0_1_STROKES" stroke="#FFFFFF" stroke-width="1" stroke-linejoin="miter" stroke-linecap="butt" stroke-miterlimit="10" fill="none" d="
M 6.7 35.15
Q 4.9 35.15 3.35 34.25 1.8 33.35 0.9 31.8 0 30.2 0 28.4 0.05 26.6 0.95 25.05
L 34.65 -31.9
Q 35.55 -33.45 37.1 -34.3 38.65 -35.15 40.45 -35.15 42.2 -35.15 43.75 -34.3 45.3 -33.45 46.2 -31.9
L 79.9 25.05
Q 80.85 26.6 80.85 28.4 80.85 30.2 79.95 31.8 79.05 33.35 77.5 34.25 75.95 35.15 74.15 35.15
L 6.7 35.15 Z"/>

<path id="Symbol_14_0_Layer0_0_1_STROKES" stroke="#FFFFFF" stroke-width="1" stroke-linejoin="miter" stroke-linecap="butt" stroke-miterlimit="10" fill="none" d="
M 39.15 39.1
Q 31.2 39.1 23.95 36.05 16.9 33.05 11.5 27.65 6.05 22.2 3.1 15.2 0 7.95 0 0 0 -7.95 3.1 -15.2 6.05 -22.25 11.5 -27.65 16.9 -33.05 23.95 -36.05 31.2 -39.1 39.15 -39.1 47.05 -39.1 54.35 -36.05 61.35 -33.05 66.8 -27.65 72.15 -22.25 75.15 -15.2 78.25 -7.95 78.25 0 78.25 7.95 75.15 15.2 72.15 22.2 66.8 27.65 61.35 33.05 54.35 36.05 47.05 39.1 39.15 39.1 Z"/>

<path id="Symbol_15_0_Layer0_0_1_STROKES" stroke="#FFFFFF" stroke-width="1" stroke-linejoin="miter" stroke-linecap="butt" stroke-miterlimit="10" fill="none" d="
M 39.1 39.1
Q 31.15 39.1 23.9 36.05 16.85 33.05 11.5 27.65 6.05 22.25 3.1 15.2 0 7.95 0 0 0 -7.95 3.1 -15.2 6.05 -22.2 11.5 -27.65 16.9 -33.05 23.9 -36.05 31.15 -39.1 39.1 -39.1 47.05 -39.1 54.3 -36.05 61.3 -33.05 66.75 -27.65 72.15 -22.2 75.15 -15.2 78.2 -7.95 78.2 0 78.2 7.95 75.15 15.2 72.15 22.25 66.75 27.65 61.3 33.05 54.3 36.05 47.05 39.1 39.1 39.1 Z"/>

<path id="Symbol_16_0_Layer0_0_1_STROKES" stroke="#FFFFFF" stroke-width="1" stroke-linejoin="miter" stroke-linecap="butt" stroke-miterlimit="10" fill="none" d="
M 6.7 35.15
Q 4.9 35.15 3.3 34.25 1.75 33.35 0.85 31.8 -0.05 30.2 0 28.4 0 26.6 0.9 25.05
L 34.65 -31.9
Q 35.55 -33.45 37.1 -34.3 38.6 -35.15 40.4 -35.15 42.2 -35.15 43.7 -34.3 45.25 -33.45 46.15 -31.9
L 79.9 25.05
Q 80.8 26.6 80.8 28.4 80.85 30.2 79.95 31.8 79.05 33.35 77.5 34.25 75.95 35.15 74.15 35.15
L 6.7 35.15 Z"/>

<path id="Symbol_17_0_Layer0_0_1_STROKES" stroke="#FFFFFF" stroke-width="1" stroke-linejoin="miter" stroke-linecap="butt" stroke-miterlimit="10" fill="none" d="
M 39.1 39.15
Q 31.15 39.15 23.9 36.05 16.85 33.1 11.5 27.65 6.05 22.25 3.1 15.2 0 7.95 0 0 0 -7.9 3.1 -15.2 6.05 -22.2 11.5 -27.6 16.9 -33.05 23.9 -36 31.15 -39.1 39.1 -39.1 47.05 -39.1 54.3 -36 61.3 -33.05 66.75 -27.6 72.15 -22.2 75.15 -15.2 78.2 -7.9 78.2 0 78.2 7.95 75.15 15.2 72.15 22.25 66.75 27.65 61.3 33.1 54.3 36.05 47.05 39.15 39.1 39.15 Z"/>

<path id="Symbol_18_0_Layer0_0_1_STROKES" stroke="#FFFFFF" stroke-width="1" stroke-linejoin="miter" stroke-linecap="butt" stroke-miterlimit="10" fill="none" d="
M 39.1 39.1
Q 31.15 39.1 23.9 36.05 16.85 33.05 11.5 27.65 6.05 22.25 3.1 15.2 0 7.95 0 0 0 -7.95 3.1 -15.2 6.05 -22.2 11.5 -27.65 16.9 -33.05 23.9 -36.05 31.15 -39.1 39.1 -39.1 47.05 -39.1 54.3 -36.05 61.3 -33.05 66.75 -27.65 72.15 -22.2 75.15 -15.2 78.2 -7.95 78.2 0 78.2 7.95 75.15 15.2 72.15 22.25 66.75 27.65 61.3 33.05 54.3 36.05 47.05 39.1 39.1 39.1 Z"/>

<path id="Symbol_19_0_Layer0_0_1_STROKES" stroke="#FFFFFF" stroke-width="1" stroke-linejoin="miter" stroke-linecap="butt" stroke-miterlimit="10" fill="none" d="
M 39.1 39.1
Q 31.15 39.1 23.9 36 16.9 33.05 11.45 27.6 6.05 22.2 3.1 15.2 0 7.95 0 0 0 -7.95 3.1 -15.2 6.05 -22.2 11.45 -27.65 16.9 -33.05 23.9 -36.05 31.15 -39.1 39.1 -39.1 47.05 -39.1 54.3 -36.05 61.35 -33.05 66.75 -27.65 72.2 -22.2 75.15 -15.2 78.25 -7.95 78.25 0 78.25 7.95 75.15 15.2 72.2 22.2 66.75 27.6 61.35 33.05 54.3 36 47.05 39.1 39.1 39.1 Z"/>

<path id="Symbol_20_0_Layer0_0_1_STROKES" stroke="#FFFFFF" stroke-width="1" stroke-linejoin="miter" stroke-linecap="butt" stroke-miterlimit="10" fill="none" d="
M 39.1 39.1
Q 31.15 39.1 23.9 36.05 16.9 33.05 11.45 27.65 6.05 22.25 3.1 15.2 0 7.95 0 0 0 -7.95 3.1 -15.2 6.05 -22.2 11.45 -27.65 16.9 -33.05 23.9 -36.05 31.15 -39.1 39.1 -39.1 47.05 -39.1 54.3 -36.05 61.35 -33.05 66.75 -27.65 72.2 -22.2 75.15 -15.2 78.25 -7.95 78.25 0 78.25 7.95 75.15 15.2 72.2 22.25 66.75 27.65 61.35 33.05 54.3 36.05 47.05 39.1 39.1 39.1 Z"/>
</defs>

<g transform="matrix( 1, 0, 0, 1, 0,0) ">
<g transform="matrix( 0.80828857421875, 0, 0, 0.80828857421875, 0.4,61.4) ">
<g transform="matrix( 1, 0, 0, 1, 0,0) ">
<use xlink:href="#Duplicate_Items_Folder_Symbol_4_copy_12_0_Layer0_0_FILL"/>
</g>
</g>

<g transform="matrix( 0.80828857421875, 0, 0, 0.80828857421875, 122.85,61.4) ">
<g transform="matrix( 1, 0, 0, 1, 0,0) ">
<use xlink:href="#Duplicate_Items_Folder_Symbol_4_copy_12_0_Layer0_0_FILL"/>
</g>
</g>

<g transform="matrix( 0.80828857421875, 0, 0, 0.80828857421875, 245.3,61.4) ">
<g transform="matrix( 1, 0, 0, 1, 0,0) ">
<use xlink:href="#Duplicate_Items_Folder_Symbol_4_copy_12_0_Layer0_0_FILL"/>
</g>
</g>

<g transform="matrix( 0.80828857421875, 0, 0, 0.80828857421875, 367.75,61.4) ">
<g transform="matrix( 1, 0, 0, 1, 0,0) ">
<use xlink:href="#Duplicate_Items_Folder_Symbol_4_copy_12_0_Layer0_0_FILL"/>
</g>
</g>

<g transform="matrix( 0.80828857421875, 0, 0, 0.80828857421875, 490.2,61.4) ">
<g transform="matrix( 1, 0, 0, 1, 0,0) ">
<use xlink:href="#Duplicate_Items_Folder_Symbol_4_copy_12_0_Layer0_0_FILL"/>
</g>
</g>

<g transform="matrix( 0.80828857421875, 0, 0, 0.80828857421875, 612.65,61.4) ">
<g transform="matrix( 1, 0, 0, 1, 0,0) ">
<use xlink:href="#Duplicate_Items_Folder_Symbol_4_copy_12_0_Layer0_0_FILL"/>
</g>
</g>

<g transform="matrix( 0.80828857421875, 0, 0, 0.80828857421875, 735.2,61.4) ">
<g transform="matrix( 1, 0, 0, 1, 0,0) ">
<use xlink:href="#Duplicate_Items_Folder_Symbol_4_copy_12_0_Layer0_0_FILL"/>
</g>
</g>

<g transform="matrix( 0.80828857421875, 0, 0, 0.80828857421875, 0.4,181.05) ">
<g transform="matrix( 1, 0, 0, 1, 0,0) ">
<use xlink:href="#Duplicate_Items_Folder_Symbol_4_copy_12_0_Layer0_0_FILL"/>
</g>
</g>

<g transform="matrix( 0.80828857421875, 0, 0, 0.80828857421875, 122.85,181.05) ">
<g transform="matrix( 1, 0, 0, 1, 0,0) ">
<use xlink:href="#Duplicate_Items_Folder_Symbol_4_copy_12_0_Layer0_0_FILL"/>
</g>
</g>

<g transform="matrix( 0.80828857421875, 0, 0, 0.80828857421875, 245.3,181.05) ">
<g transform="matrix( 1, 0, 0, 1, 0,0) ">
<use xlink:href="#Duplicate_Items_Folder_Symbol_4_copy_12_0_Layer0_0_FILL"/>
</g>
</g>

<g transform="matrix( 0.80828857421875, 0, 0, 0.80828857421875, 367.75,181.05) ">
<g transform="matrix( 1, 0, 0, 1, 0,0) ">
<use xlink:href="#Duplicate_Items_Folder_Symbol_4_copy_12_0_Layer0_0_FILL"/>
</g>
</g>

<g transform="matrix( 0.80828857421875, 0, 0, 0.80828857421875, 490.2,181.05) ">
<g transform="matrix( 1, 0, 0, 1, 0,0) ">
<use xlink:href="#Duplicate_Items_Folder_Symbol_4_copy_12_0_Layer0_0_FILL"/>
</g>
</g>

<g transform="matrix( 0.80828857421875, 0, 0, 0.80828857421875, 612.65,181.05) ">
<g transform="matrix( 1, 0, 0, 1, 0,0) ">
<use xlink:href="#Duplicate_Items_Folder_Symbol_4_copy_12_0_Layer0_0_FILL"/>
</g>
</g>

<g transform="matrix( 0.80828857421875, 0, 0, 0.80828857421875, 735.2,181.05) ">
<g transform="matrix( 1, 0, 0, 1, 0,0) ">
<use xlink:href="#Duplicate_Items_Folder_Symbol_4_copy_12_0_Layer0_0_FILL"/>
</g>
</g>

<g transform="matrix( 0.80828857421875, 0, 0, 0.80828857421875, 0.4,300.65) ">
<g transform="matrix( 1, 0, 0, 1, 0,0) ">
<use xlink:href="#Duplicate_Items_Folder_Symbol_4_copy_12_0_Layer0_0_FILL"/>
</g>
</g>

<g transform="matrix( 0.80828857421875, 0, 0, 0.80828857421875, 122.85,300.65) ">
<g transform="matrix( 1, 0, 0, 1, 0,0) ">
<use xlink:href="#Duplicate_Items_Folder_Symbol_4_copy_12_0_Layer0_0_FILL"/>
</g>
</g>

<g transform="matrix( 0.80828857421875, 0, 0, 0.80828857421875, 245.3,300.65) ">
<g transform="matrix( 1, 0, 0, 1, 0,0) ">
<use xlink:href="#Duplicate_Items_Folder_Symbol_4_copy_12_0_Layer0_0_FILL"/>
</g>
</g>

<g transform="matrix( 0.80828857421875, 0, 0, 0.80828857421875, 367.75,300.65) ">
<g transform="matrix( 1, 0, 0, 1, 0,0) ">
<use xlink:href="#Duplicate_Items_Folder_Symbol_4_copy_12_0_Layer0_0_FILL"/>
</g>
</g>

<g transform="matrix( 0.80828857421875, 0, 0, 0.80828857421875, 490.2,300.65) ">
<g transform="matrix( 1, 0, 0, 1, 0,0) ">
<use xlink:href="#Duplicate_Items_Folder_Symbol_4_copy_12_0_Layer0_0_FILL"/>
</g>
</g>

<g transform="matrix( 0.80828857421875, 0, 0, 0.80828857421875, 612.65,300.65) ">
<g transform="matrix( 1, 0, 0, 1, 0,0) ">
<use xlink:href="#Duplicate_Items_Folder_Symbol_4_copy_12_0_Layer0_0_FILL"/>
</g>
</g>

<g transform="matrix( 0.80828857421875, 0, 0, 0.80828857421875, 735.2,300.65) ">
<g transform="matrix( 1, 0, 0, 1, 0,0) ">
<use xlink:href="#Duplicate_Items_Folder_Symbol_4_copy_12_0_Layer0_0_FILL"/>
</g>
</g>

<g transform="matrix( 0.80828857421875, 0, 0, 0.80828857421875, 0.4,420.3) ">
<g transform="matrix( 1, 0, 0, 1, 0,0) ">
<use xlink:href="#Duplicate_Items_Folder_Symbol_4_copy_12_0_Layer0_0_FILL"/>
</g>
</g>

<g transform="matrix( 0.80828857421875, 0, 0, 0.80828857421875, 122.85,420.3) ">
<g transform="matrix( 1, 0, 0, 1, 0,0) ">
<use xlink:href="#Duplicate_Items_Folder_Symbol_4_copy_12_0_Layer0_0_FILL"/>
</g>
</g>

<g transform="matrix( 0.80828857421875, 0, 0, 0.80828857421875, 245.3,420.3) ">
<g transform="matrix( 1, 0, 0, 1, 0,0) ">
<use xlink:href="#Duplicate_Items_Folder_Symbol_4_copy_12_0_Layer0_0_FILL"/>
</g>
</g>

<g transform="matrix( 0.80828857421875, 0, 0, 0.80828857421875, 367.75,420.3) ">
<g transform="matrix( 1, 0, 0, 1, 0,0) ">
<use xlink:href="#Duplicate_Items_Folder_Symbol_4_copy_12_0_Layer0_0_FILL"/>
</g>
</g>

<g transform="matrix( 0.80828857421875, 0, 0, 0.80828857421875, 490.2,420.3) ">
<g transform="matrix( 1, 0, 0, 1, 0,0) ">
<use xlink:href="#Duplicate_Items_Folder_Symbol_4_copy_12_0_Layer0_0_FILL"/>
</g>
</g>

<g transform="matrix( 0.80828857421875, 0, 0, 0.80828857421875, 612.65,420.3) ">
<g transform="matrix( 1, 0, 0, 1, 0,0) ">
<use xlink:href="#Duplicate_Items_Folder_Symbol_4_copy_12_0_Layer0_0_FILL"/>
</g>
</g>

<g transform="matrix( 0.80828857421875, 0, 0, 0.80828857421875, 735.2,420.3) ">
<g transform="matrix( 1, 0, 0, 1, 0,0) ">
<use xlink:href="#Duplicate_Items_Folder_Symbol_4_copy_12_0_Layer0_0_FILL"/>
</g>
</g>

<g transform="matrix( 0.80828857421875, 0, 0, 0.80828857421875, 0.4,540.05) ">
<g transform="matrix( 1, 0, 0, 1, 0,0) ">
<use xlink:href="#Duplicate_Items_Folder_Symbol_4_copy_12_0_Layer0_0_FILL"/>
</g>
</g>

<g transform="matrix( 0.80828857421875, 0, 0, 0.80828857421875, 122.85,540.05) ">
<g transform="matrix( 1, 0, 0, 1, 0,0) ">
<use xlink:href="#Duplicate_Items_Folder_Symbol_4_copy_12_0_Layer0_0_FILL"/>
</g>
</g>

<g transform="matrix( 0.80828857421875, 0, 0, 0.80828857421875, 245.3,540.05) ">
<g transform="matrix( 1, 0, 0, 1, 0,0) ">
<use xlink:href="#Duplicate_Items_Folder_Symbol_4_copy_12_0_Layer0_0_FILL"/>
</g>
</g>

<g transform="matrix( 0.80828857421875, 0, 0, 0.80828857421875, 367.75,540.05) ">
<g transform="matrix( 1, 0, 0, 1, 0,0) ">
<use xlink:href="#Duplicate_Items_Folder_Symbol_4_copy_12_0_Layer0_0_FILL"/>
</g>
</g>

<g transform="matrix( 0.80828857421875, 0, 0, 0.80828857421875, 490.2,540.05) ">
<g transform="matrix( 1, 0, 0, 1, 0,0) ">
<use xlink:href="#Duplicate_Items_Folder_Symbol_4_copy_12_0_Layer0_0_FILL"/>
</g>
</g>

<g transform="matrix( 0.80828857421875, 0, 0, 0.80828857421875, 612.65,540.05) ">
<g transform="matrix( 1, 0, 0, 1, 0,0) ">
<use xlink:href="#Duplicate_Items_Folder_Symbol_4_copy_12_0_Layer0_0_FILL"/>
</g>
</g>

<g transform="matrix( 0.80828857421875, 0, 0, 0.80828857421875, 735.2,540.05) ">
<g transform="matrix( 1, 0, 0, 1, 0,0) ">
<use xlink:href="#Duplicate_Items_Folder_Symbol_4_copy_12_0_Layer0_0_FILL"/>
</g>
</g>

<g transform="matrix( 0.484130859375, 0, 0, 0.484130859375, 19.95,57.3) ">
<g transform="matrix( 1, 0, 0, 1, 0,0) ">
<use xlink:href="#Symbol_3_0_Layer0_0_FILL"/>

<use xlink:href="#Symbol_3_0_Layer0_0_1_STROKES"/>

<use xlink:href="#Symbol_3_0_Layer0_0_2_STROKES"/>
</g>
</g>

<g transform="matrix( 0.484130859375, 0, 0, 0.484130859375, 637.6,57.3) ">
<g transform="matrix( 1, 0, 0, 1, 0,0) ">
<use xlink:href="#Symbol_5_0_Layer0_0_FILL"/>

<use xlink:href="#Symbol_5_0_Layer0_0_1_STROKES"/>

<use xlink:href="#Symbol_5_0_Layer0_0_2_STROKES"/>
</g>
</g>

<g transform="matrix( 0.484130859375, 0, 0, 0.484130859375, 267.8,540.8) ">
<g transform="matrix( 1, 0, 0, 1, 0,0) ">
<use xlink:href="#Symbol_6_0_Layer0_0_FILL"/>

<use xlink:href="#Symbol_6_0_Layer0_0_1_STROKES"/>
</g>
</g>

<g transform="matrix( 1, 0, 0, 1, 633.3,299.85) ">
<g transform="matrix( 1, 0, 0, 1, 0,0) ">
<use xlink:href="#Symbol_8_0_Layer0_0_FILL"/>

<use xlink:href="#Symbol_8_0_Layer0_0_1_STROKES"/>
</g>
</g>

<g transform="matrix( 1, 0, 0, 1, 514.35,418.45) ">
<g transform="matrix( 1, 0, 0, 1, 0,0) ">
<use xlink:href="#Symbol_9_0_Layer0_0_FILL"/>

<use xlink:href="#Symbol_9_0_Layer0_0_1_STROKES"/>
</g>
</g>

<g transform="matrix( 1, 0, 0, 1, 510.85,176.8) ">
<g transform="matrix( 1, 0, 0, 1, 0,0) ">
<use xlink:href="#Symbol_10_0_Layer0_0_FILL"/>

<use xlink:href="#Symbol_10_0_Layer0_0_1_STROKES"/>
</g>
</g>

<g transform="matrix( 1, 0, 0, 1, 750.3,60.35) ">
<g transform="matrix( 1, 0, 0, 1, 0,0) ">
<use xlink:href="#Symbol_11_0_Layer0_0_FILL"/>

<use xlink:href="#Symbol_11_0_Layer0_0_1_STROKES"/>

<use xlink:href="#Symbol_11_0_Layer0_0_2_STROKES"/>
</g>
</g>

<g transform="matrix( 1, 0, 0, 1, 632.2,537.9) ">
<g transform="matrix( 1, 0, 0, 1, 0,0) ">
<use xlink:href="#Symbol_12_0_Layer0_0_FILL"/>

<use xlink:href="#Symbol_12_0_Layer0_0_1_STROKES"/>
</g>
</g>

<g transform="matrix( 1, 0, 0, 1, 756.7,181.4) ">
<g transform="matrix( 1, 0, 0, 1, 0,0) ">
<use xlink:href="#Symbol_13_0_Layer0_0_FILL"/>

<use xlink:href="#Symbol_13_0_Layer0_0_1_STROKES"/>
</g>
</g>

<g transform="matrix( 1, 0, 0, 1, 143.8,60.6) ">
<g transform="matrix( 1, 0, 0, 1, 0,0) ">
<use xlink:href="#Symbol_14_0_Layer0_0_FILL"/>

<use xlink:href="#Symbol_14_0_Layer0_0_1_STROKES"/>
</g>
</g>

<g transform="matrix( 1, 0, 0, 1, 390.05,59.95) ">
<g transform="matrix( 1, 0, 0, 1, 0,0) ">
<use xlink:href="#Symbol_15_0_Layer0_0_FILL"/>

<use xlink:href="#Symbol_15_0_Layer0_0_1_STROKES"/>
</g>
</g>

<g transform="matrix( 1, 0, 0, 1, 512.6,540.25) ">
<g transform="matrix( 1, 0, 0, 1, 0,0) ">
<use xlink:href="#Symbol_16_0_Layer0_0_FILL"/>

<use xlink:href="#Symbol_16_0_Layer0_0_1_STROKES"/>
</g>
</g>

<g transform="matrix( 1, 0, 0, 1, 390.3,422.05) ">
<g transform="matrix( 1, 0, 0, 1, 0,0) ">
<use xlink:href="#Symbol_17_0_Layer0_0_FILL"/>

<use xlink:href="#Symbol_17_0_Layer0_0_1_STROKES"/>
</g>
</g>

<g transform="matrix( 1, 0, 0, 1, 147.05,420.75) ">
<g transform="matrix( 1, 0, 0, 1, 0,0) ">
<use xlink:href="#Symbol_18_0_Layer0_0_FILL"/>

<use xlink:href="#Symbol_18_0_Layer0_0_1_STROKES"/>
</g>
</g>

<g transform="matrix( 1, 0, 0, 1, 21.45,302.9) ">
<g transform="matrix( 1, 0, 0, 1, 0,0) ">
<use xlink:href="#Symbol_19_0_Layer0_0_FILL"/>

<use xlink:href="#Symbol_19_0_Layer0_0_1_STROKES"/>
</g>
</g>

<g transform="matrix( 1, 0, 0, 1, 266.7,181.55) ">
<g transform="matrix( 1, 0, 0, 1, 0,0) ">
<use xlink:href="#Symbol_20_0_Layer0_0_FILL"/>

<use xlink:href="#Symbol_20_0_Layer0_0_1_STROKES"/>
</g>
</g>
</g>
</svg>
